<?xml version="1.0" encoding="UTF-8" standalone="no"?>
<!DOCTYPE svg PUBLIC "-//W3C//DTD SVG 1.1//EN"
 "http://www.w3.org/Graphics/SVG/1.1/DTD/svg11.dtd">
<!-- Generated by graphviz version 2.38.0 (20140413.2041)
 -->
<!-- Title: gTestCyberReq02_sadl10 Pages: 1 -->
<svg width="1091pt" height="971pt"
 viewBox="0.00 0.00 1090.65 970.68" xmlns="http://www.w3.org/2000/svg" xmlns:xlink="http://www.w3.org/1999/xlink">
<g id="graph0" class="graph" transform="scale(1 1) rotate(0) translate(4 966.683)">
<title>gTestCyberReq02_sadl10</title>
<polygon fill="white" stroke="none" points="-4,4 -4,-966.683 1086.65,-966.683 1086.65,4 -4,4"/>
<text text-anchor="middle" x="56.5" y="-947.483" font-family="Times New Roman,serif" font-size="14.00">Cmd 11 &#160;(Graph)</text>
<!-- n1 -->
<g id="node1" class="node"><title>n1</title>
<polygon fill="none" stroke="black" points="1046.7,-513.683 622.932,-513.683 513.918,-377.683 937.687,-377.683 1046.7,-513.683"/>
<text text-anchor="middle" x="780.309" y="-464.483" font-family="Times New Roman,serif" font-size="14.00">S1.1.2.1</text>
<text text-anchor="middle" x="780.309" y="-449.483" font-family="Times New Roman,serif" font-size="14.00">Argument: The probabilities are confirmed </text>
<text text-anchor="middle" x="780.309" y="-434.483" font-family="Times New Roman,serif" font-size="14.00">by attack/defense tree analysis performed </text>
<text text-anchor="middle" x="780.309" y="-419.483" font-family="Times New Roman,serif" font-size="14.00">by Soteria++</text>
</g>
<!-- n2 -->
<g id="node2" class="node"><title>n2</title>
<path fill="none" stroke="black" d="M726.309,-198.342C726.309,-198.342 556.309,-198.342 556.309,-198.342 550.309,-198.342 544.309,-192.342 544.309,-186.342 544.309,-186.342 544.309,-140.342 544.309,-140.342 544.309,-134.342 550.309,-128.342 556.309,-128.342 556.309,-128.342 726.309,-128.342 726.309,-128.342 732.309,-128.342 738.309,-134.342 738.309,-140.342 738.309,-140.342 738.309,-186.342 738.309,-186.342 738.309,-192.342 732.309,-198.342 726.309,-198.342"/>
<text text-anchor="middle" x="641.309" y="-183.142" font-family="Times New Roman,serif" font-size="14.00">C9</text>
<text text-anchor="middle" x="641.309" y="-136.142" font-family="Times New Roman,serif" font-size="14.00">CASE Consolidated properties.</text>
</g>
<!-- n1&#45;&gt;n2 -->
<g id="edge1" class="edge"><title>n1&#45;&gt;n2</title>
<path fill="none" stroke="black" d="M747.015,-377.535C720.867,-324.797 685.231,-252.926 662.747,-207.579"/>
<polygon fill="black" stroke="black" points="665.873,-206.003 658.295,-198.599 659.601,-209.113 665.873,-206.003"/>
<text text-anchor="middle" x="771.309" y="-348.483" font-family="Times New Roman,serif" font-size="14.00">inContextOf</text>
</g>
<!-- n10 -->
<g id="node10" class="node"><title>n10</title>
<ellipse fill="none" stroke="black" cx="919.309" cy="-163.342" rx="163.183" ry="163.183"/>
<text text-anchor="middle" x="919.309" y="-182.642" font-family="Times New Roman,serif" font-size="14.00">E2</text>
<text text-anchor="middle" x="919.309" y="-167.642" font-family="Times New Roman,serif" font-size="14.00">Soteria++ output of probability of the </text>
<text text-anchor="middle" x="919.309" y="-136.642" font-family="Times New Roman,serif" font-size="14.00">minimum cutset</text>
</g>
<!-- n1&#45;&gt;n10 -->
<g id="edge9" class="edge"><title>n1&#45;&gt;n10</title>
<path fill="none" stroke="black" d="M813.603,-377.535C822.453,-359.685 832.391,-339.643 842.537,-319.18"/>
<polygon fill="black" stroke="black" points="845.745,-320.587 847.052,-310.074 839.474,-317.478 845.745,-320.587"/>
<text text-anchor="middle" x="865.809" y="-348.483" font-family="Times New Roman,serif" font-size="14.00">supportedBy</text>
</g>
<!-- n3 -->
<g id="node3" class="node"><title>n3</title>
<polygon fill="none" stroke="black" points="558.809,-633.683 323.809,-633.683 323.809,-564.683 558.809,-564.683 558.809,-633.683"/>
<text text-anchor="middle" x="441.309" y="-618.483" font-family="Times New Roman,serif" font-size="14.00">G1.1.2.1</text>
<text text-anchor="middle" x="441.309" y="-603.483" font-family="Times New Roman,serif" font-size="14.00">The delivery mechanism shall not have </text>
<text text-anchor="middle" x="441.309" y="-572.483" font-family="Times New Roman,serif" font-size="14.00">any integrity concern</text>
</g>
<!-- n3&#45;&gt;n1 -->
<g id="edge10" class="edge"><title>n3&#45;&gt;n1</title>
<path fill="none" stroke="black" d="M516.544,-564.561C547.474,-550.738 584.544,-534.171 620.984,-517.886"/>
<polygon fill="black" stroke="black" points="622.529,-521.029 630.231,-513.754 619.673,-514.638 622.529,-521.029"/>
<text text-anchor="middle" x="627.809" y="-535.483" font-family="Times New Roman,serif" font-size="14.00">supportedBy</text>
</g>
<!-- n4 -->
<g id="node4" class="node"><title>n4</title>
<path fill="none" stroke="black" d="M483.809,-480.183C483.809,-480.183 266.809,-480.183 266.809,-480.183 260.809,-480.183 254.809,-474.183 254.809,-468.183 254.809,-468.183 254.809,-423.183 254.809,-423.183 254.809,-417.183 260.809,-411.183 266.809,-411.183 266.809,-411.183 483.809,-411.183 483.809,-411.183 489.809,-411.183 495.809,-417.183 495.809,-423.183 495.809,-423.183 495.809,-468.183 495.809,-468.183 495.809,-474.183 489.809,-480.183 483.809,-480.183"/>
<text text-anchor="middle" x="375.309" y="-464.983" font-family="Times New Roman,serif" font-size="14.00">C4</text>
<text text-anchor="middle" x="375.309" y="-449.983" font-family="Times New Roman,serif" font-size="14.00">The deliveryItemMechanism subsystem </text>
<text text-anchor="middle" x="375.309" y="-418.983" font-family="Times New Roman,serif" font-size="14.00">of a drone</text>
</g>
<!-- n3&#45;&gt;n4 -->
<g id="edge2" class="edge"><title>n3&#45;&gt;n4</title>
<path fill="none" stroke="black" d="M426.662,-564.561C417.049,-542.495 404.389,-513.436 394.045,-489.692"/>
<polygon fill="black" stroke="black" points="397.118,-487.982 389.916,-480.212 390.701,-490.778 397.118,-487.982"/>
<text text-anchor="middle" x="453.309" y="-535.483" font-family="Times New Roman,serif" font-size="14.00">inContextOf</text>
</g>
<!-- n5 -->
<g id="node5" class="node"><title>n5</title>
<path fill="none" stroke="black" d="M167.809,-480.683C167.809,-480.683 32.8091,-480.683 32.8091,-480.683 26.8091,-480.683 20.8091,-474.683 20.8091,-468.683 20.8091,-468.683 20.8091,-422.683 20.8091,-422.683 20.8091,-416.683 26.8091,-410.683 32.8091,-410.683 32.8091,-410.683 167.809,-410.683 167.809,-410.683 173.809,-410.683 179.809,-416.683 179.809,-422.683 179.809,-422.683 179.809,-468.683 179.809,-468.683 179.809,-474.683 173.809,-480.683 167.809,-480.683"/>
<text text-anchor="middle" x="100.309" y="-465.483" font-family="Times New Roman,serif" font-size="14.00">C1</text>
<text text-anchor="middle" x="100.309" y="-418.483" font-family="Times New Roman,serif" font-size="14.00">A package delivery drone</text>
</g>
<!-- n3&#45;&gt;n5 -->
<g id="edge3" class="edge"><title>n3&#45;&gt;n5</title>
<path fill="none" stroke="black" d="M361.952,-564.521C326.213,-549.22 283.543,-530.755 245.309,-513.683 224.888,-504.565 202.942,-494.542 182.46,-485.09"/>
<polygon fill="black" stroke="black" points="183.709,-481.812 173.163,-480.793 180.772,-488.166 183.709,-481.812"/>
<text text-anchor="middle" x="350.309" y="-535.483" font-family="Times New Roman,serif" font-size="14.00">inContextOf</text>
</g>
<!-- n6 -->
<g id="node6" class="node"><title>n6</title>
<polygon fill="none" stroke="black" points="672.157,-820.683 282.659,-820.683 182.462,-684.683 571.959,-684.683 672.157,-820.683"/>
<text text-anchor="middle" x="427.309" y="-771.483" font-family="Times New Roman,serif" font-size="14.00">S1.1.2</text>
<text text-anchor="middle" x="427.309" y="-756.483" font-family="Times New Roman,serif" font-size="14.00">Argument: By G1.1.2.1, The delivery </text>
<text text-anchor="middle" x="427.309" y="-741.483" font-family="Times New Roman,serif" font-size="14.00">mechanism does not have any integrity </text>
<text text-anchor="middle" x="427.309" y="-726.483" font-family="Times New Roman,serif" font-size="14.00">concern</text>
</g>
<!-- n6&#45;&gt;n3 -->
<g id="edge11" class="edge"><title>n6&#45;&gt;n3</title>
<path fill="none" stroke="black" d="M433.531,-684.351C434.798,-670.645 436.099,-656.566 437.266,-643.94"/>
<polygon fill="black" stroke="black" points="440.775,-643.996 438.21,-633.717 433.805,-643.352 440.775,-643.996"/>
<text text-anchor="middle" x="473.809" y="-655.483" font-family="Times New Roman,serif" font-size="14.00">supportedBy</text>
</g>
<!-- n7 -->
<g id="node7" class="node"><title>n7</title>
<path fill="none" stroke="black" d="M293.309,-633.183C293.309,-633.183 27.3091,-633.183 27.3091,-633.183 21.3091,-633.183 15.3091,-627.183 15.3091,-621.183 15.3091,-621.183 15.3091,-577.183 15.3091,-577.183 15.3091,-571.183 21.3091,-565.183 27.3091,-565.183 27.3091,-565.183 293.309,-565.183 293.309,-565.183 299.309,-565.183 305.309,-571.183 305.309,-577.183 305.309,-577.183 305.309,-621.183 305.309,-621.183 305.309,-627.183 299.309,-633.183 293.309,-633.183"/>
<text text-anchor="middle" x="160.309" y="-617.983" font-family="Times New Roman,serif" font-size="14.00">C6</text>
<text text-anchor="middle" x="160.309" y="-602.983" font-family="Times New Roman,serif" font-size="14.00">The resilience to malicious commands </text>
<text text-anchor="middle" x="160.309" y="-587.983" font-family="Times New Roman,serif" font-size="14.00">has a hazardous integrity concern if </text>
<text text-anchor="middle" x="160.309" y="-572.983" font-family="Times New Roman,serif" font-size="14.00">the &#160;delivery mechanism has an integrity concern.</text>
</g>
<!-- n6&#45;&gt;n7 -->
<g id="edge4" class="edge"><title>n6&#45;&gt;n7</title>
<path fill="none" stroke="black" d="M309.033,-684.572C281.081,-668.711 252.227,-652.339 227.459,-638.285"/>
<polygon fill="black" stroke="black" points="228.953,-635.109 218.528,-633.218 225.498,-641.197 228.953,-635.109"/>
<text text-anchor="middle" x="305.309" y="-655.483" font-family="Times New Roman,serif" font-size="14.00">inContextOf</text>
</g>
<!-- n8 -->
<g id="node8" class="node"><title>n8</title>
<path fill="none" stroke="black" d="M789.809,-633.683C789.809,-633.683 592.809,-633.683 592.809,-633.683 586.809,-633.683 580.809,-627.683 580.809,-621.683 580.809,-621.683 580.809,-576.683 580.809,-576.683 580.809,-570.683 586.809,-564.683 592.809,-564.683 592.809,-564.683 789.809,-564.683 789.809,-564.683 795.809,-564.683 801.809,-570.683 801.809,-576.683 801.809,-576.683 801.809,-621.683 801.809,-621.683 801.809,-627.683 795.809,-633.683 789.809,-633.683"/>
<text text-anchor="middle" x="691.309" y="-618.483" font-family="Times New Roman,serif" font-size="14.00">C6</text>
<text text-anchor="middle" x="691.309" y="-603.483" font-family="Times New Roman,serif" font-size="14.00">A concern affecting the resilience to </text>
<text text-anchor="middle" x="691.309" y="-572.483" font-family="Times New Roman,serif" font-size="14.00">malicious commands</text>
</g>
<!-- n6&#45;&gt;n8 -->
<g id="edge5" class="edge"><title>n6&#45;&gt;n8</title>
<path fill="none" stroke="black" d="M544.256,-684.572C571.526,-668.923 599.663,-652.775 623.932,-638.848"/>
<polygon fill="black" stroke="black" points="625.758,-641.836 632.69,-633.823 622.274,-635.765 625.758,-641.836"/>
<text text-anchor="middle" x="634.309" y="-655.483" font-family="Times New Roman,serif" font-size="14.00">inContextOf</text>
</g>
<!-- n9 -->
<g id="node9" class="node"><title>n9</title>
<polygon fill="none" stroke="black" points="303.309,-939.683 67.3091,-939.683 67.3091,-871.683 303.309,-871.683 303.309,-939.683"/>
<text text-anchor="middle" x="185.309" y="-924.483" font-family="Times New Roman,serif" font-size="14.00">G1.1.2</text>
<text text-anchor="middle" x="185.309" y="-909.483" font-family="Times New Roman,serif" font-size="14.00">The drone&#39;s resilience to malicious </text>
<text text-anchor="middle" x="185.309" y="-894.483" font-family="Times New Roman,serif" font-size="14.00">commands shall have integrity concern </text>
<text text-anchor="middle" x="185.309" y="-879.483" font-family="Times New Roman,serif" font-size="14.00">less severe than Hazardous</text>
</g>
<!-- n9&#45;&gt;n5 -->
<g id="edge8" class="edge"><title>n9&#45;&gt;n5</title>
<path fill="none" stroke="black" d="M130.872,-871.415C123.315,-865.879 115.894,-859.902 109.309,-853.683 30.8119,-779.56 27.5026,-739.546 6.30913,-633.683 0.289195,-603.613 -3.81179,-593.632 6.30913,-564.683 16.3173,-536.057 36.5003,-509.188 55.6073,-488.342"/>
<polygon fill="black" stroke="black" points="58.2685,-490.621 62.5772,-480.942 53.1729,-485.822 58.2685,-490.621"/>
<text text-anchor="middle" x="48.3091" y="-655.483" font-family="Times New Roman,serif" font-size="14.00">inContextOf</text>
</g>
<!-- n9&#45;&gt;n6 -->
<g id="edge12" class="edge"><title>n9&#45;&gt;n6</title>
<path fill="none" stroke="black" d="M238.417,-871.546C259.918,-858.13 285.647,-842.076 311.093,-826.198"/>
<polygon fill="black" stroke="black" points="313.074,-829.088 319.706,-820.824 309.369,-823.149 313.074,-829.088"/>
<text text-anchor="middle" x="328.809" y="-842.483" font-family="Times New Roman,serif" font-size="14.00">supportedBy</text>
</g>
<!-- n9&#45;&gt;n7 -->
<g id="edge6" class="edge"><title>n9&#45;&gt;n7</title>
<path fill="none" stroke="black" d="M140.933,-871.368C126.045,-857.52 111.225,-840.125 103.309,-820.683 80.5149,-764.702 85.6359,-742.486 103.309,-684.683 107.935,-669.552 116.284,-654.683 125.189,-641.738"/>
<polygon fill="black" stroke="black" points="128.097,-643.689 131.089,-633.526 122.412,-639.605 128.097,-643.689"/>
<text text-anchor="middle" x="138.309" y="-748.983" font-family="Times New Roman,serif" font-size="14.00">inContextOf</text>
</g>
<!-- n9&#45;&gt;n8 -->
<g id="edge7" class="edge"><title>n9&#45;&gt;n8</title>
<path fill="none" stroke="black" d="M303.322,-901.225C433.989,-894.667 632.668,-875.677 681.309,-820.683 723.825,-772.615 714.996,-693.079 703.804,-643.815"/>
<polygon fill="black" stroke="black" points="707.207,-642.993 701.473,-634.084 700.399,-644.624 707.207,-642.993"/>
<text text-anchor="middle" x="748.309" y="-748.983" font-family="Times New Roman,serif" font-size="14.00">inContextOf</text>
</g>
</g>
</svg>
