<?xml version="1.0" encoding="UTF-8" standalone="no"?>
<!DOCTYPE svg PUBLIC "-//W3C//DTD SVG 1.1//EN"
 "http://www.w3.org/Graphics/SVG/1.1/DTD/svg11.dtd">
<!-- Generated by graphviz version 2.38.0 (20140413.2041)
 -->
<!-- Title: gTestDeliveryDroneQueries_sadl0 Pages: 1 -->
<svg width="3297pt" height="241pt"
 viewBox="0.00 0.00 3297.00 241.00" xmlns="http://www.w3.org/2000/svg" xmlns:xlink="http://www.w3.org/1999/xlink">
<g id="graph0" class="graph" transform="scale(1 1) rotate(0) translate(4 237)">
<title>gTestDeliveryDroneQueries_sadl0</title>
<polygon fill="white" stroke="none" points="-4,4 -4,-237 3293,-237 3293,4 -4,4"/>
<text text-anchor="middle" x="53.5" y="-217.8" font-family="Times New Roman,serif" font-size="14.00">Cmd 1 &#160;(Graph)</text>
<!-- n1 -->
<g id="node1" class="node"><title>n1</title>
<polygon fill="none" stroke="black" points="349,-210 175,-210 175,-174 349,-174 349,-210"/>
<text text-anchor="middle" x="262" y="-188.3" font-family="Times New Roman,serif" font-size="14.00">27e4fb14:172f084348e:&#45;71fe</text>
</g>
<!-- n2 -->
<g id="node2" class="node"><title>n2</title>
<polygon fill="none" stroke="black" points="658,-123 0,-123 0,-87 658,-87 658,-123"/>
<text text-anchor="middle" x="329" y="-101.3" font-family="Times New Roman,serif" font-size="14.00">https://github.com/ge&#45;high&#45;assurance/assurance&#45;case/tree/master/DeliveryDrone/evidence/ImplProperties&#45;safety.xml</text>
</g>
<!-- n1&#45;&gt;n2 -->
<g id="edge1" class="edge"><title>n1&#45;&gt;n2</title>
<path fill="none" stroke="black" d="M275.558,-173.799C285.185,-161.587 298.265,-144.992 309.075,-131.278"/>
<polygon fill="black" stroke="black" points="312.02,-133.196 315.462,-123.175 306.522,-128.862 312.02,-133.196"/>
<text text-anchor="middle" x="322.5" y="-144.8" font-family="Times New Roman,serif" font-size="14.00">location</text>
</g>
<!-- n3 -->
<g id="node3" class="node"><title>n3</title>
<polygon fill="none" stroke="black" points="1215.5,-210 1160.5,-210 1160.5,-174 1215.5,-174 1215.5,-210"/>
<text text-anchor="middle" x="1188" y="-188.3" font-family="Times New Roman,serif" font-size="14.00">G1.1.1</text>
</g>
<!-- n4 -->
<g id="node4" class="node"><title>n4</title>
<polygon fill="none" stroke="black" points="1355,-123 1301,-123 1301,-87 1355,-87 1355,-123"/>
<text text-anchor="middle" x="1328" y="-101.3" font-family="Times New Roman,serif" font-size="14.00">C1</text>
</g>
<!-- n3&#45;&gt;n4 -->
<g id="edge2" class="edge"><title>n3&#45;&gt;n4</title>
<path fill="none" stroke="black" d="M1206.96,-173.939C1219.02,-163.607 1235.27,-150.614 1251,-141 1263.7,-133.234 1278.42,-126.129 1291.57,-120.38"/>
<polygon fill="black" stroke="black" points="1292.98,-123.583 1300.81,-116.444 1290.24,-117.142 1292.98,-123.583"/>
<text text-anchor="middle" x="1286" y="-144.8" font-family="Times New Roman,serif" font-size="14.00">inContextOf</text>
</g>
<!-- n5 -->
<g id="node5" class="node"><title>n5</title>
<polygon fill="none" stroke="black" points="1169,-123 1115,-123 1115,-87 1169,-87 1169,-123"/>
<text text-anchor="middle" x="1142" y="-101.3" font-family="Times New Roman,serif" font-size="14.00">C5</text>
</g>
<!-- n3&#45;&gt;n5 -->
<g id="edge3" class="edge"><title>n3&#45;&gt;n5</title>
<path fill="none" stroke="black" d="M1160.34,-175.623C1153.44,-170.354 1146.9,-163.785 1143,-156 1139.52,-149.064 1138.35,-140.876 1138.3,-133.157"/>
<polygon fill="black" stroke="black" points="1141.8,-133.247 1138.81,-123.082 1134.81,-132.891 1141.8,-133.247"/>
<text text-anchor="middle" x="1178" y="-144.8" font-family="Times New Roman,serif" font-size="14.00">inContextOf</text>
</g>
<!-- n6 -->
<g id="node6" class="node"><title>n6</title>
<polygon fill="none" stroke="black" points="2378,-210 2324,-210 2324,-174 2378,-174 2378,-210"/>
<text text-anchor="middle" x="2351" y="-188.3" font-family="Times New Roman,serif" font-size="14.00">S1.1.2</text>
</g>
<!-- n7 -->
<g id="node7" class="node"><title>n7</title>
<polygon fill="none" stroke="black" points="2378,-123 2324,-123 2324,-87 2378,-87 2378,-123"/>
<text text-anchor="middle" x="2351" y="-101.3" font-family="Times New Roman,serif" font-size="14.00">C6</text>
</g>
<!-- n6&#45;&gt;n7 -->
<g id="edge4" class="edge"><title>n6&#45;&gt;n7</title>
<path fill="none" stroke="black" d="M2351,-173.799C2351,-162.163 2351,-146.548 2351,-133.237"/>
<polygon fill="black" stroke="black" points="2354.5,-133.175 2351,-123.175 2347.5,-133.175 2354.5,-133.175"/>
<text text-anchor="middle" x="2386" y="-144.8" font-family="Times New Roman,serif" font-size="14.00">inContextOf</text>
</g>
<!-- n8 -->
<g id="node8" class="node"><title>n8</title>
<polygon fill="none" stroke="black" points="1029,-210 975,-210 975,-174 1029,-174 1029,-210"/>
<text text-anchor="middle" x="1002" y="-188.3" font-family="Times New Roman,serif" font-size="14.00">G1</text>
</g>
<!-- n8&#45;&gt;n4 -->
<g id="edge5" class="edge"><title>n8&#45;&gt;n4</title>
<path fill="none" stroke="black" d="M1018.25,-173.969C1030.1,-162.675 1047.13,-148.587 1065,-141 1075.26,-136.644 1220.36,-118.866 1290.53,-110.453"/>
<polygon fill="black" stroke="black" points="1291.2,-113.898 1300.71,-109.234 1290.37,-106.947 1291.2,-113.898"/>
<text text-anchor="middle" x="1100" y="-144.8" font-family="Times New Roman,serif" font-size="14.00">inContextOf</text>
</g>
<!-- n9 -->
<g id="node9" class="node"><title>n9</title>
<polygon fill="none" stroke="black" points="797,-123 743,-123 743,-87 797,-87 797,-123"/>
<text text-anchor="middle" x="770" y="-101.3" font-family="Times New Roman,serif" font-size="14.00">C2</text>
</g>
<!-- n8&#45;&gt;n9 -->
<g id="edge6" class="edge"><title>n8&#45;&gt;n9</title>
<path fill="none" stroke="black" d="M979.612,-173.81C961.798,-160.255 939.046,-143.266 934,-141 892.844,-122.515 841.418,-113.584 807.238,-109.414"/>
<polygon fill="black" stroke="black" points="807.547,-105.927 797.214,-108.267 806.752,-112.881 807.547,-105.927"/>
<text text-anchor="middle" x="990" y="-144.8" font-family="Times New Roman,serif" font-size="14.00">inContextOf</text>
</g>
<!-- n10 -->
<g id="node10" class="node"><title>n10</title>
<polygon fill="none" stroke="black" points="1592.5,-210 1527.5,-210 1527.5,-174 1592.5,-174 1592.5,-210"/>
<text text-anchor="middle" x="1560" y="-188.3" font-family="Times New Roman,serif" font-size="14.00">G1.1.2.1</text>
</g>
<!-- n10&#45;&gt;n4 -->
<g id="edge8" class="edge"><title>n10&#45;&gt;n4</title>
<path fill="none" stroke="black" d="M1535.66,-173.96C1527.74,-168.323 1518.94,-161.965 1511,-156 1502.4,-149.538 1501.74,-145.576 1492,-141 1451.05,-121.757 1399.37,-112.978 1365.09,-109.051"/>
<polygon fill="black" stroke="black" points="1365.35,-105.56 1355.04,-107.982 1364.61,-112.52 1365.35,-105.56"/>
<text text-anchor="middle" x="1546" y="-144.8" font-family="Times New Roman,serif" font-size="14.00">inContextOf</text>
</g>
<!-- n11 -->
<g id="node11" class="node"><title>n11</title>
<polygon fill="none" stroke="black" points="1634,-123 1580,-123 1580,-87 1634,-87 1634,-123"/>
<text text-anchor="middle" x="1607" y="-101.3" font-family="Times New Roman,serif" font-size="14.00">C4</text>
</g>
<!-- n10&#45;&gt;n11 -->
<g id="edge7" class="edge"><title>n10&#45;&gt;n11</title>
<path fill="none" stroke="black" d="M1573.45,-173.663C1577.42,-168.17 1581.6,-161.971 1585,-156 1589.22,-148.582 1593.19,-140.2 1596.57,-132.448"/>
<polygon fill="black" stroke="black" points="1599.86,-133.662 1600.5,-123.087 1593.4,-130.951 1599.86,-133.662"/>
<text text-anchor="middle" x="1628" y="-144.8" font-family="Times New Roman,serif" font-size="14.00">inContextOf</text>
</g>
<!-- n12 -->
<g id="node12" class="node"><title>n12</title>
<polygon fill="none" stroke="black" points="661,-210 607,-210 607,-174 661,-174 661,-210"/>
<text text-anchor="middle" x="634" y="-188.3" font-family="Times New Roman,serif" font-size="14.00">G1.2</text>
</g>
<!-- n12&#45;&gt;n4 -->
<g id="edge10" class="edge"><title>n12&#45;&gt;n4</title>
<path fill="none" stroke="black" d="M648.569,-173.693C659.473,-162.115 675.475,-147.798 693,-141 743.276,-121.497 1124.23,-127.039 1178,-123 1216.57,-120.102 1260.53,-114.895 1290.84,-111.005"/>
<polygon fill="black" stroke="black" points="1291.49,-114.449 1300.96,-109.689 1290.59,-107.507 1291.49,-114.449"/>
<text text-anchor="middle" x="728" y="-144.8" font-family="Times New Roman,serif" font-size="14.00">inContextOf</text>
</g>
<!-- n12&#45;&gt;n9 -->
<g id="edge9" class="edge"><title>n12&#45;&gt;n9</title>
<path fill="none" stroke="black" d="M606.953,-177.991C590.269,-168.22 573.989,-154.29 585,-141 587.365,-138.146 679.274,-121.762 732.634,-112.456"/>
<polygon fill="black" stroke="black" points="733.503,-115.858 742.755,-110.696 732.303,-108.961 733.503,-115.858"/>
<text text-anchor="middle" x="620" y="-144.8" font-family="Times New Roman,serif" font-size="14.00">inContextOf</text>
</g>
<!-- n13 -->
<g id="node13" class="node"><title>n13</title>
<polygon fill="none" stroke="black" points="2471,-210 2417,-210 2417,-174 2471,-174 2471,-210"/>
<text text-anchor="middle" x="2444" y="-188.3" font-family="Times New Roman,serif" font-size="14.00">S1.1.1</text>
</g>
<!-- n13&#45;&gt;n7 -->
<g id="edge11" class="edge"><title>n13&#45;&gt;n7</title>
<path fill="none" stroke="black" d="M2439.61,-173.536C2436.24,-163.053 2430.66,-150.042 2422,-141 2412.55,-131.131 2399.73,-123.648 2387.59,-118.187"/>
<polygon fill="black" stroke="black" points="2388.65,-114.837 2378.07,-114.234 2385.96,-121.302 2388.65,-114.837"/>
<text text-anchor="middle" x="2468" y="-144.8" font-family="Times New Roman,serif" font-size="14.00">inContextOf</text>
</g>
<!-- n14 -->
<g id="node14" class="node"><title>n14</title>
<polygon fill="none" stroke="black" points="2651,-123 2597,-123 2597,-87 2651,-87 2651,-123"/>
<text text-anchor="middle" x="2624" y="-101.3" font-family="Times New Roman,serif" font-size="14.00">C9</text>
</g>
<!-- n15 -->
<g id="node15" class="node"><title>n15</title>
<polygon fill="none" stroke="black" points="2941.5,-36 2226.5,-36 2226.5,-0 2941.5,-0 2941.5,-36"/>
<text text-anchor="middle" x="2584" y="-14.3" font-family="Times New Roman,serif" font-size="14.00">https://github.com/ge&#45;high&#45;assurance/assurance&#45;case/tree/master/DeliveryDrone/context/CASE_Consolidated_Properties.aadl</text>
</g>
<!-- n14&#45;&gt;n15 -->
<g id="edge12" class="edge"><title>n14&#45;&gt;n15</title>
<path fill="none" stroke="black" d="M2615.91,-86.799C2610.32,-74.9322 2602.79,-58.9279 2596.45,-45.4488"/>
<polygon fill="black" stroke="black" points="2599.51,-43.7333 2592.08,-36.1754 2593.17,-46.7139 2599.51,-43.7333"/>
<text text-anchor="middle" x="2629.5" y="-57.8" font-family="Times New Roman,serif" font-size="14.00">location</text>
</g>
<!-- n16 -->
<g id="node16" class="node"><title>n16</title>
<polygon fill="none" stroke="black" points="2661.5,-210 2598.5,-210 2598.5,-174 2661.5,-174 2661.5,-210"/>
<text text-anchor="middle" x="2630" y="-188.3" font-family="Times New Roman,serif" font-size="14.00">S1.1.2.1</text>
</g>
<!-- n16&#45;&gt;n14 -->
<g id="edge13" class="edge"><title>n16&#45;&gt;n14</title>
<path fill="none" stroke="black" d="M2628.79,-173.799C2627.96,-162.163 2626.86,-146.548 2625.92,-133.237"/>
<polygon fill="black" stroke="black" points="2629.41,-132.904 2625.21,-123.175 2622.43,-133.397 2629.41,-132.904"/>
<text text-anchor="middle" x="2663" y="-144.8" font-family="Times New Roman,serif" font-size="14.00">inContextOf</text>
</g>
<!-- n17 -->
<g id="node17" class="node"><title>n17</title>
<polygon fill="none" stroke="black" points="1825.5,-210 1760.5,-210 1760.5,-174 1825.5,-174 1825.5,-210"/>
<text text-anchor="middle" x="1793" y="-188.3" font-family="Times New Roman,serif" font-size="14.00">G1.1.1.1</text>
</g>
<!-- n17&#45;&gt;n4 -->
<g id="edge15" class="edge"><title>n17&#45;&gt;n4</title>
<path fill="none" stroke="black" d="M1760.2,-180.083C1741.48,-173.594 1717.69,-164.911 1697,-156 1683.31,-150.104 1681.31,-145.166 1667,-141 1611.12,-124.732 1440.9,-112.797 1365.1,-108.143"/>
<polygon fill="black" stroke="black" points="1365.24,-104.645 1355.05,-107.535 1364.82,-111.632 1365.24,-104.645"/>
<text text-anchor="middle" x="1732" y="-144.8" font-family="Times New Roman,serif" font-size="14.00">inContextOf</text>
</g>
<!-- n17&#45;&gt;n11 -->
<g id="edge16" class="edge"><title>n17&#45;&gt;n11</title>
<path fill="none" stroke="black" d="M1789.62,-173.708C1786.59,-162.745 1781,-149.143 1771,-141 1751.9,-125.454 1686.43,-115.17 1644.22,-109.983"/>
<polygon fill="black" stroke="black" points="1644.37,-106.477 1634.03,-108.774 1643.54,-113.428 1644.37,-106.477"/>
<text text-anchor="middle" x="1818" y="-144.8" font-family="Times New Roman,serif" font-size="14.00">inContextOf</text>
</g>
<!-- n18 -->
<g id="node18" class="node"><title>n18</title>
<polygon fill="none" stroke="black" points="2006,-123 1952,-123 1952,-87 2006,-87 2006,-123"/>
<text text-anchor="middle" x="1979" y="-101.3" font-family="Times New Roman,serif" font-size="14.00">C3</text>
</g>
<!-- n17&#45;&gt;n18 -->
<g id="edge14" class="edge"><title>n17&#45;&gt;n18</title>
<path fill="none" stroke="black" d="M1825.59,-175.948C1837.81,-170.043 1851.7,-163.008 1864,-156 1874.6,-149.958 1876.12,-146.535 1887,-141 1904.57,-132.059 1924.99,-124.069 1942.12,-117.989"/>
<polygon fill="black" stroke="black" points="1943.48,-121.221 1951.78,-114.636 1941.18,-114.608 1943.48,-121.221"/>
<text text-anchor="middle" x="1922" y="-144.8" font-family="Times New Roman,serif" font-size="14.00">inContextOf</text>
</g>
<!-- n19 -->
<g id="node19" class="node"><title>n19</title>
<polygon fill="none" stroke="black" points="2569,-123 2515,-123 2515,-87 2569,-87 2569,-123"/>
<text text-anchor="middle" x="2542" y="-101.3" font-family="Times New Roman,serif" font-size="14.00">C10</text>
</g>
<!-- n19&#45;&gt;n15 -->
<g id="edge17" class="edge"><title>n19&#45;&gt;n15</title>
<path fill="none" stroke="black" d="M2543.63,-86.6047C2545.09,-76.6396 2547.84,-64.1396 2553,-54 2554.72,-50.6179 2556.85,-47.3039 2559.17,-44.1458"/>
<polygon fill="black" stroke="black" points="2562.04,-46.1694 2565.66,-36.211 2556.62,-41.7405 2562.04,-46.1694"/>
<text text-anchor="middle" x="2575.5" y="-57.8" font-family="Times New Roman,serif" font-size="14.00">location</text>
</g>
<!-- n20 -->
<g id="node20" class="node"><title>n20</title>
<polygon fill="none" stroke="black" points="843,-210 789,-210 789,-174 843,-174 843,-210"/>
<text text-anchor="middle" x="816" y="-188.3" font-family="Times New Roman,serif" font-size="14.00">G1.1</text>
</g>
<!-- n20&#45;&gt;n4 -->
<g id="edge18" class="edge"><title>n20&#45;&gt;n4</title>
<path fill="none" stroke="black" d="M828.777,-173.811C838.802,-160.87 852.306,-144.744 860,-141 891.823,-125.516 1142.74,-125.994 1178,-123 1216.54,-119.728 1260.5,-114.578 1290.82,-110.803"/>
<polygon fill="black" stroke="black" points="1291.46,-114.25 1300.95,-109.53 1290.59,-107.305 1291.46,-114.25"/>
<text text-anchor="middle" x="895" y="-144.8" font-family="Times New Roman,serif" font-size="14.00">inContextOf</text>
</g>
<!-- n20&#45;&gt;n9 -->
<g id="edge19" class="edge"><title>n20&#45;&gt;n9</title>
<path fill="none" stroke="black" d="M788.812,-175.98C781.741,-170.652 774.993,-163.962 771,-156 767.521,-149.064 766.35,-140.876 766.298,-133.157"/>
<polygon fill="black" stroke="black" points="769.798,-133.247 766.811,-123.082 762.807,-132.891 769.798,-133.247"/>
<text text-anchor="middle" x="806" y="-144.8" font-family="Times New Roman,serif" font-size="14.00">inContextOf</text>
</g>
<!-- n21 -->
<g id="node21" class="node"><title>n21</title>
<polygon fill="none" stroke="black" points="2568.5,-210 2505.5,-210 2505.5,-174 2568.5,-174 2568.5,-210"/>
<text text-anchor="middle" x="2537" y="-188.3" font-family="Times New Roman,serif" font-size="14.00">S1.1.1.1</text>
</g>
<!-- n21&#45;&gt;n19 -->
<g id="edge20" class="edge"><title>n21&#45;&gt;n19</title>
<path fill="none" stroke="black" d="M2536.95,-173.858C2537.02,-164.198 2537.27,-151.915 2538,-141 2538.17,-138.437 2538.39,-135.773 2538.65,-133.11"/>
<polygon fill="black" stroke="black" points="2542.14,-133.377 2539.73,-123.061 2535.18,-132.63 2542.14,-133.377"/>
<text text-anchor="middle" x="2573" y="-144.8" font-family="Times New Roman,serif" font-size="14.00">inContextOf</text>
</g>
<!-- n22 -->
<g id="node22" class="node"><title>n22</title>
<polygon fill="none" stroke="black" points="2969.5,-210 2792.5,-210 2792.5,-174 2969.5,-174 2969.5,-210"/>
<text text-anchor="middle" x="2881" y="-188.3" font-family="Times New Roman,serif" font-size="14.00">27e4fb14:172f084348e:&#45;7231</text>
</g>
<!-- n23 -->
<g id="node23" class="node"><title>n23</title>
<polygon fill="none" stroke="black" points="3289,-123 2669,-123 2669,-87 3289,-87 3289,-123"/>
<text text-anchor="middle" x="2979" y="-101.3" font-family="Times New Roman,serif" font-size="14.00">https://github.com/ge&#45;high&#45;assurance/assurance&#45;case/tree/master/DeliveryDrone/evidence/ImplProperties.xml</text>
</g>
<!-- n22&#45;&gt;n23 -->
<g id="edge21" class="edge"><title>n22&#45;&gt;n23</title>
<path fill="none" stroke="black" d="M2900.83,-173.799C2915.44,-161.126 2935.5,-143.734 2951.63,-129.738"/>
<polygon fill="black" stroke="black" points="2953.94,-132.372 2959.2,-123.175 2949.35,-127.084 2953.94,-132.372"/>
<text text-anchor="middle" x="2958.5" y="-144.8" font-family="Times New Roman,serif" font-size="14.00">location</text>
</g>
<!-- n24 -->
<g id="node24" class="node"><title>n24</title>
<polygon fill="none" stroke="black" points="2052.5,-210 1997.5,-210 1997.5,-174 2052.5,-174 2052.5,-210"/>
<text text-anchor="middle" x="2025" y="-188.3" font-family="Times New Roman,serif" font-size="14.00">G1.1.3</text>
</g>
<!-- n24&#45;&gt;n4 -->
<g id="edge22" class="edge"><title>n24&#45;&gt;n4</title>
<path fill="none" stroke="black" d="M2000.66,-173.96C1992.74,-168.323 1983.94,-161.965 1976,-156 1967.4,-149.538 1967.08,-144.764 1957,-141 1916.78,-125.978 1613.86,-125.498 1571,-123 1498.19,-118.756 1413.2,-112.515 1365.48,-108.894"/>
<polygon fill="black" stroke="black" points="1365.56,-105.389 1355.32,-108.119 1365.02,-112.369 1365.56,-105.389"/>
<text text-anchor="middle" x="2011" y="-144.8" font-family="Times New Roman,serif" font-size="14.00">inContextOf</text>
</g>
<!-- n24&#45;&gt;n18 -->
<g id="edge23" class="edge"><title>n24&#45;&gt;n18</title>
<path fill="none" stroke="black" d="M2042.42,-173.912C2050.31,-164.049 2056.56,-151.549 2050,-141 2042.29,-128.604 2028.76,-120.47 2015.56,-115.194"/>
<polygon fill="black" stroke="black" points="2016.69,-111.882 2006.09,-111.838 2014.35,-118.479 2016.69,-111.882"/>
<text text-anchor="middle" x="2088" y="-144.8" font-family="Times New Roman,serif" font-size="14.00">inContextOf</text>
</g>
<!-- n25 -->
<g id="node25" class="node"><title>n25</title>
<polygon fill="none" stroke="black" points="3166,-210 2988,-210 2988,-174 3166,-174 3166,-210"/>
<text text-anchor="middle" x="3077" y="-188.3" font-family="Times New Roman,serif" font-size="14.00">27e4fb14:172f084348e:&#45;721b</text>
</g>
<!-- n25&#45;&gt;n23 -->
<g id="edge24" class="edge"><title>n25&#45;&gt;n23</title>
<path fill="none" stroke="black" d="M3057.17,-173.799C3042.56,-161.126 3022.5,-143.734 3006.37,-129.738"/>
<polygon fill="black" stroke="black" points="3008.65,-127.084 2998.8,-123.175 3004.06,-132.372 3008.65,-127.084"/>
<text text-anchor="middle" x="3056.5" y="-144.8" font-family="Times New Roman,serif" font-size="14.00">location</text>
</g>
<!-- n26 -->
<g id="node26" class="node"><title>n26</title>
<polygon fill="none" stroke="black" points="544.5,-210 367.5,-210 367.5,-174 544.5,-174 544.5,-210"/>
<text text-anchor="middle" x="456" y="-188.3" font-family="Times New Roman,serif" font-size="14.00">27e4fb14:172f084348e:&#45;7211</text>
</g>
<!-- n26&#45;&gt;n2 -->
<g id="edge25" class="edge"><title>n26&#45;&gt;n2</title>
<path fill="none" stroke="black" d="M430.3,-173.799C410.934,-160.838 384.193,-142.941 363.049,-128.789"/>
<polygon fill="black" stroke="black" points="364.919,-125.829 354.662,-123.175 361.026,-131.646 364.919,-125.829"/>
<text text-anchor="middle" x="423.5" y="-144.8" font-family="Times New Roman,serif" font-size="14.00">location</text>
</g>
<!-- n27 -->
<g id="node27" class="node"><title>n27</title>
<polygon fill="none" stroke="black" points="2238.5,-210 2183.5,-210 2183.5,-174 2238.5,-174 2238.5,-210"/>
<text text-anchor="middle" x="2211" y="-188.3" font-family="Times New Roman,serif" font-size="14.00">G1.1.2</text>
</g>
<!-- n27&#45;&gt;n4 -->
<g id="edge27" class="edge"><title>n27&#45;&gt;n4</title>
<path fill="none" stroke="black" d="M2189.28,-173.864C2173.12,-162.205 2149.97,-147.72 2127,-141 2067.68,-123.643 1632.73,-126.157 1571,-123 1498.16,-119.274 1413.18,-112.854 1365.47,-109.059"/>
<polygon fill="black" stroke="black" points="1365.56,-105.555 1355.31,-108.246 1365,-112.533 1365.56,-105.555"/>
<text text-anchor="middle" x="2197" y="-144.8" font-family="Times New Roman,serif" font-size="14.00">inContextOf</text>
</g>
<!-- n27&#45;&gt;n7 -->
<g id="edge26" class="edge"><title>n27&#45;&gt;n7</title>
<path fill="none" stroke="black" d="M2231.32,-173.862C2243.99,-163.628 2260.9,-150.764 2277,-141 2288.79,-133.849 2302.28,-127.089 2314.48,-121.452"/>
<polygon fill="black" stroke="black" points="2316.26,-124.49 2323.94,-117.186 2313.38,-118.109 2316.26,-124.49"/>
<text text-anchor="middle" x="2312" y="-144.8" font-family="Times New Roman,serif" font-size="14.00">inContextOf</text>
</g>
<!-- n28 -->
<g id="node28" class="node"><title>n28</title>
<polygon fill="none" stroke="black" points="1401.5,-210 1346.5,-210 1346.5,-174 1401.5,-174 1401.5,-210"/>
<text text-anchor="middle" x="1374" y="-188.3" font-family="Times New Roman,serif" font-size="14.00">G1.2.1</text>
</g>
<!-- n28&#45;&gt;n4 -->
<g id="edge28" class="edge"><title>n28&#45;&gt;n4</title>
<path fill="none" stroke="black" d="M1346.34,-175.623C1339.44,-170.354 1332.9,-163.785 1329,-156 1325.52,-149.064 1324.35,-140.876 1324.3,-133.157"/>
<polygon fill="black" stroke="black" points="1327.8,-133.247 1324.81,-123.082 1320.81,-132.891 1327.8,-133.247"/>
<text text-anchor="middle" x="1364" y="-144.8" font-family="Times New Roman,serif" font-size="14.00">inContextOf</text>
</g>
<!-- n28&#45;&gt;n11 -->
<g id="edge29" class="edge"><title>n28&#45;&gt;n11</title>
<path fill="none" stroke="black" d="M1384.58,-173.943C1392.42,-162.789 1404.12,-148.875 1418,-141 1465.56,-114.015 1529.67,-107.235 1569.65,-105.851"/>
<polygon fill="black" stroke="black" points="1569.86,-109.347 1579.77,-105.598 1569.68,-102.349 1569.86,-109.347"/>
<text text-anchor="middle" x="1453" y="-144.8" font-family="Times New Roman,serif" font-size="14.00">inContextOf</text>
</g>
</g>
</svg>
