<?xml version="1.0" encoding="UTF-8" standalone="no"?>
<!DOCTYPE svg PUBLIC "-//W3C//DTD SVG 1.1//EN"
 "http://www.w3.org/Graphics/SVG/1.1/DTD/svg11.dtd">
<!-- Generated by graphviz version 2.38.0 (20140413.2041)
 -->
<!-- Title: gTestDeliveryDroneQueries_sadl0 Pages: 1 -->
<svg width="2127pt" height="154pt"
 viewBox="0.00 0.00 2127.17 154.00" xmlns="http://www.w3.org/2000/svg" xmlns:xlink="http://www.w3.org/1999/xlink">
<g id="graph0" class="graph" transform="scale(1 1) rotate(0) translate(4 150)">
<title>gTestDeliveryDroneQueries_sadl0</title>
<polygon fill="white" stroke="none" points="-4,4 -4,-150 2123.17,-150 2123.17,4 -4,4"/>
<text text-anchor="middle" x="53.5" y="-130.8" font-family="Times New Roman,serif" font-size="14.00">Cmd 1 &#160;(Graph)</text>
<!-- n1 -->
<g id="node1" class="node"><title>n1</title>
<polygon fill="none" stroke="black" points="634.667,-123 579.667,-123 579.667,-87 634.667,-87 634.667,-123"/>
<text text-anchor="middle" x="607.167" y="-101.3" font-family="Times New Roman,serif" font-size="14.00">G1.1.3</text>
</g>
<!-- n2 -->
<g id="node2" class="node"><title>n2</title>
<polygon fill="none" stroke="black" points="867.167,-36 813.167,-36 813.167,-0 867.167,-0 867.167,-36"/>
<text text-anchor="middle" x="840.167" y="-14.3" font-family="Times New Roman,serif" font-size="14.00">C1</text>
</g>
<!-- n1&#45;&gt;n2 -->
<g id="edge1" class="edge"><title>n1&#45;&gt;n2</title>
<path fill="none" stroke="black" d="M635.135,-96.7382C659.243,-90.234 694.849,-80.0408 725.167,-69 752.016,-59.2225 781.563,-46.328 803.984,-36.0826"/>
<polygon fill="black" stroke="black" points="805.509,-39.2335 813.128,-31.8708 802.581,-32.8755 805.509,-39.2335"/>
<text text-anchor="middle" x="796.167" y="-57.8" font-family="Times New Roman,serif" font-size="14.00">inContextOf</text>
</g>
<!-- n3 -->
<g id="node3" class="node"><title>n3</title>
<polygon fill="none" stroke="black" points="541.167,-36 487.167,-36 487.167,-0 541.167,-0 541.167,-36"/>
<text text-anchor="middle" x="514.167" y="-14.3" font-family="Times New Roman,serif" font-size="14.00">C3</text>
</g>
<!-- n1&#45;&gt;n3 -->
<g id="edge2" class="edge"><title>n1&#45;&gt;n3</title>
<path fill="none" stroke="black" d="M579.382,-100.951C543.084,-96.3297 482.562,-86.2157 469.167,-69 461.377,-58.987 468.301,-48.4685 478.855,-39.6765"/>
<polygon fill="black" stroke="black" points="481.08,-42.3833 487.022,-33.6116 476.907,-36.7633 481.08,-42.3833"/>
<text text-anchor="middle" x="504.167" y="-57.8" font-family="Times New Roman,serif" font-size="14.00">inContextOf</text>
</g>
<!-- n4 -->
<g id="node4" class="node"><title>n4</title>
<polygon fill="none" stroke="black" points="1987.67,-123 1924.67,-123 1924.67,-87 1987.67,-87 1987.67,-123"/>
<text text-anchor="middle" x="1956.17" y="-101.3" font-family="Times New Roman,serif" font-size="14.00">S1.1.1.1</text>
</g>
<!-- n5 -->
<g id="node5" class="node"><title>n5</title>
<polygon fill="none" stroke="black" points="1983.17,-36 1929.17,-36 1929.17,-0 1983.17,-0 1983.17,-36"/>
<text text-anchor="middle" x="1956.17" y="-14.3" font-family="Times New Roman,serif" font-size="14.00">C10</text>
</g>
<!-- n4&#45;&gt;n5 -->
<g id="edge3" class="edge"><title>n4&#45;&gt;n5</title>
<path fill="none" stroke="black" d="M1956.17,-86.799C1956.17,-75.1626 1956.17,-59.5479 1956.17,-46.2368"/>
<polygon fill="black" stroke="black" points="1959.67,-46.1754 1956.17,-36.1754 1952.67,-46.1755 1959.67,-46.1754"/>
<text text-anchor="middle" x="1991.17" y="-57.8" font-family="Times New Roman,serif" font-size="14.00">inContextOf</text>
</g>
<!-- n6 -->
<g id="node6" class="node"><title>n6</title>
<polygon fill="none" stroke="black" points="435.167,-123 381.167,-123 381.167,-87 435.167,-87 435.167,-123"/>
<text text-anchor="middle" x="408.167" y="-101.3" font-family="Times New Roman,serif" font-size="14.00">G1.1</text>
</g>
<!-- n6&#45;&gt;n2 -->
<g id="edge4" class="edge"><title>n6&#45;&gt;n2</title>
<path fill="none" stroke="black" d="M435.462,-101.485C487.15,-96.4363 597.267,-84.237 632.167,-69 642.027,-64.6952 641.369,-58.443 651.167,-54 700.583,-31.5938 763.468,-23.5306 802.78,-20.6296"/>
<polygon fill="black" stroke="black" points="803.222,-24.108 812.969,-19.9547 802.76,-17.1233 803.222,-24.108"/>
<text text-anchor="middle" x="686.167" y="-57.8" font-family="Times New Roman,serif" font-size="14.00">inContextOf</text>
</g>
<!-- n7 -->
<g id="node7" class="node"><title>n7</title>
<polygon fill="none" stroke="black" points="123.167,-36 69.1672,-36 69.1672,-0 123.167,-0 123.167,-36"/>
<text text-anchor="middle" x="96.1672" y="-14.3" font-family="Times New Roman,serif" font-size="14.00">C2</text>
</g>
<!-- n6&#45;&gt;n7 -->
<g id="edge5" class="edge"><title>n6&#45;&gt;n7</title>
<path fill="none" stroke="black" d="M381.003,-98.8973C355.107,-93.4587 315.395,-83.6032 283.167,-69 272.051,-63.963 271.436,-58.6859 260.167,-54 218.509,-36.677 167.189,-27.5013 133.17,-22.9569"/>
<polygon fill="black" stroke="black" points="133.559,-19.4783 123.198,-21.6914 132.678,-26.4226 133.559,-19.4783"/>
<text text-anchor="middle" x="318.167" y="-57.8" font-family="Times New Roman,serif" font-size="14.00">inContextOf</text>
</g>
<!-- n8 -->
<g id="node8" class="node"><title>n8</title>
<polygon fill="none" stroke="black" points="872.667,-123 807.667,-123 807.667,-87 872.667,-87 872.667,-123"/>
<text text-anchor="middle" x="840.167" y="-101.3" font-family="Times New Roman,serif" font-size="14.00">G1.1.1.1</text>
</g>
<!-- n8&#45;&gt;n2 -->
<g id="edge7" class="edge"><title>n8&#45;&gt;n2</title>
<path fill="none" stroke="black" d="M840.167,-86.799C840.167,-75.1626 840.167,-59.5479 840.167,-46.2368"/>
<polygon fill="black" stroke="black" points="843.667,-46.1754 840.167,-36.1754 836.667,-46.1755 843.667,-46.1754"/>
<text text-anchor="middle" x="875.167" y="-57.8" font-family="Times New Roman,serif" font-size="14.00">inContextOf</text>
</g>
<!-- n8&#45;&gt;n3 -->
<g id="edge6" class="edge"><title>n8&#45;&gt;n3</title>
<path fill="none" stroke="black" d="M807.657,-101.136C739,-94.9109 583.738,-79.8362 562.167,-69 550.69,-63.2347 540.44,-53.5853 532.388,-44.2928"/>
<polygon fill="black" stroke="black" points="534.93,-41.8712 525.902,-36.3251 529.501,-46.2901 534.93,-41.8712"/>
<text text-anchor="middle" x="597.167" y="-57.8" font-family="Times New Roman,serif" font-size="14.00">inContextOf</text>
</g>
<!-- n9 -->
<g id="node9" class="node"><title>n9</title>
<polygon fill="none" stroke="black" points="1425.17,-36 1371.17,-36 1371.17,-0 1425.17,-0 1425.17,-36"/>
<text text-anchor="middle" x="1398.17" y="-14.3" font-family="Times New Roman,serif" font-size="14.00">C4</text>
</g>
<!-- n8&#45;&gt;n9 -->
<g id="edge8" class="edge"><title>n8&#45;&gt;n9</title>
<path fill="none" stroke="black" d="M872.683,-101.456C906.81,-97.7994 961.349,-89.1198 1004.17,-69 1013.9,-64.4244 1013.11,-57.8144 1023.17,-54 1089.35,-28.9061 1271.45,-48.1975 1341.17,-36 1347.64,-34.8672 1354.42,-33.2466 1360.95,-31.4509"/>
<polygon fill="black" stroke="black" points="1362.32,-34.6977 1370.93,-28.5298 1360.35,-27.9795 1362.32,-34.6977"/>
<text text-anchor="middle" x="1058.17" y="-57.8" font-family="Times New Roman,serif" font-size="14.00">inContextOf</text>
</g>
<!-- n10 -->
<g id="node10" class="node"><title>n10</title>
<polygon fill="none" stroke="black" points="1052.67,-123 997.667,-123 997.667,-87 1052.67,-87 1052.67,-123"/>
<text text-anchor="middle" x="1025.17" y="-101.3" font-family="Times New Roman,serif" font-size="14.00">G1.1.1</text>
</g>
<!-- n10&#45;&gt;n2 -->
<g id="edge9" class="edge"><title>n10&#45;&gt;n2</title>
<path fill="none" stroke="black" d="M997.439,-95.0452C979.067,-88.7008 954.665,-79.4777 934.167,-69 923.301,-63.4454 921.771,-60.0422 911.167,-54 900.067,-47.6744 887.665,-41.3272 876.371,-35.8084"/>
<polygon fill="black" stroke="black" points="877.725,-32.5759 867.197,-31.3861 874.685,-38.8814 877.725,-32.5759"/>
<text text-anchor="middle" x="969.167" y="-57.8" font-family="Times New Roman,serif" font-size="14.00">inContextOf</text>
</g>
<!-- n11 -->
<g id="node11" class="node"><title>n11</title>
<polygon fill="none" stroke="black" points="1332.17,-36 1278.17,-36 1278.17,-0 1332.17,-0 1332.17,-36"/>
<text text-anchor="middle" x="1305.17" y="-14.3" font-family="Times New Roman,serif" font-size="14.00">C5</text>
</g>
<!-- n10&#45;&gt;n11 -->
<g id="edge10" class="edge"><title>n10&#45;&gt;n11</title>
<path fill="none" stroke="black" d="M1053.12,-100.297C1119.67,-91.4712 1282.02,-69.8647 1283.17,-69 1290.76,-63.279 1295.78,-54.3694 1299.08,-45.6466"/>
<polygon fill="black" stroke="black" points="1302.43,-46.6475 1302.12,-36.0574 1295.76,-44.5344 1302.43,-46.6475"/>
<text text-anchor="middle" x="1330.17" y="-57.8" font-family="Times New Roman,serif" font-size="14.00">inContextOf</text>
</g>
<!-- n12 -->
<g id="node12" class="node"><title>n12</title>
<polygon fill="none" stroke="black" points="1797.17,-123 1743.17,-123 1743.17,-87 1797.17,-87 1797.17,-123"/>
<text text-anchor="middle" x="1770.17" y="-101.3" font-family="Times New Roman,serif" font-size="14.00">S1.1.1</text>
</g>
<!-- n13 -->
<g id="node13" class="node"><title>n13</title>
<polygon fill="none" stroke="black" points="1797.17,-36 1743.17,-36 1743.17,-0 1797.17,-0 1797.17,-36"/>
<text text-anchor="middle" x="1770.17" y="-14.3" font-family="Times New Roman,serif" font-size="14.00">C6</text>
</g>
<!-- n12&#45;&gt;n13 -->
<g id="edge11" class="edge"><title>n12&#45;&gt;n13</title>
<path fill="none" stroke="black" d="M1770.17,-86.799C1770.17,-75.1626 1770.17,-59.5479 1770.17,-46.2368"/>
<polygon fill="black" stroke="black" points="1773.67,-46.1754 1770.17,-36.1754 1766.67,-46.1755 1773.67,-46.1754"/>
<text text-anchor="middle" x="1805.17" y="-57.8" font-family="Times New Roman,serif" font-size="14.00">inContextOf</text>
</g>
<!-- n14 -->
<g id="node14" class="node"><title>n14</title>
<polygon fill="none" stroke="black" points="128.167,-123 74.1672,-123 74.1672,-87 128.167,-87 128.167,-123"/>
<text text-anchor="middle" x="101.167" y="-101.3" font-family="Times New Roman,serif" font-size="14.00">G1.2</text>
</g>
<!-- n14&#45;&gt;n2 -->
<g id="edge13" class="edge"><title>n14&#45;&gt;n2</title>
<path fill="none" stroke="black" d="M128.45,-90.9327C140.594,-84.7642 154.892,-77.0065 167.167,-69 176.179,-63.1224 176.094,-57.7785 186.167,-54 224.082,-39.7787 509.732,-38.1849 550.167,-36 641.004,-31.0917 747.805,-24.6605 802.978,-21.2891"/>
<polygon fill="black" stroke="black" points="803.217,-24.7811 812.984,-20.6766 802.789,-17.7942 803.217,-24.7811"/>
<text text-anchor="middle" x="221.167" y="-57.8" font-family="Times New Roman,serif" font-size="14.00">inContextOf</text>
</g>
<!-- n14&#45;&gt;n7 -->
<g id="edge12" class="edge"><title>n14&#45;&gt;n7</title>
<path fill="none" stroke="black" d="M73.8913,-102.39C51.0706,-99.4328 19.8067,-91.2695 4.1672,-69 -12.3777,-45.4412 26.7519,-31.8961 59.0067,-24.9908"/>
<polygon fill="black" stroke="black" points="60.03,-28.3562 69.1582,-22.9779 58.6684,-21.4899 60.03,-28.3562"/>
<text text-anchor="middle" x="39.1672" y="-57.8" font-family="Times New Roman,serif" font-size="14.00">inContextOf</text>
</g>
<!-- n15 -->
<g id="node15" class="node"><title>n15</title>
<polygon fill="none" stroke="black" points="1657.67,-123 1602.67,-123 1602.67,-87 1657.67,-87 1657.67,-123"/>
<text text-anchor="middle" x="1630.17" y="-101.3" font-family="Times New Roman,serif" font-size="14.00">G1.1.2</text>
</g>
<!-- n15&#45;&gt;n2 -->
<g id="edge15" class="edge"><title>n15&#45;&gt;n2</title>
<path fill="none" stroke="black" d="M1608.7,-86.9818C1592.73,-75.3807 1569.86,-60.915 1547.17,-54 1514.94,-44.1794 1019.17,-25.5021 877.63,-20.3471"/>
<polygon fill="black" stroke="black" points="877.424,-16.8374 867.304,-19.9721 877.17,-23.8328 877.424,-16.8374"/>
<text text-anchor="middle" x="1614.17" y="-57.8" font-family="Times New Roman,serif" font-size="14.00">inContextOf</text>
</g>
<!-- n15&#45;&gt;n13 -->
<g id="edge14" class="edge"><title>n15&#45;&gt;n13</title>
<path fill="none" stroke="black" d="M1650.49,-86.8622C1663.16,-76.6276 1680.06,-63.7636 1696.17,-54 1707.96,-46.8486 1721.45,-40.0891 1733.65,-34.4522"/>
<polygon fill="black" stroke="black" points="1735.43,-37.4898 1743.1,-30.1861 1732.55,-31.1095 1735.43,-37.4898"/>
<text text-anchor="middle" x="1731.17" y="-57.8" font-family="Times New Roman,serif" font-size="14.00">inContextOf</text>
</g>
<!-- n16 -->
<g id="node16" class="node"><title>n16</title>
<polygon fill="none" stroke="black" points="2080.67,-123 2017.67,-123 2017.67,-87 2080.67,-87 2080.67,-123"/>
<text text-anchor="middle" x="2049.17" y="-101.3" font-family="Times New Roman,serif" font-size="14.00">S1.1.2.1</text>
</g>
<!-- n17 -->
<g id="node17" class="node"><title>n17</title>
<polygon fill="none" stroke="black" points="2076.17,-36 2022.17,-36 2022.17,-0 2076.17,-0 2076.17,-36"/>
<text text-anchor="middle" x="2049.17" y="-14.3" font-family="Times New Roman,serif" font-size="14.00">C9</text>
</g>
<!-- n16&#45;&gt;n17 -->
<g id="edge16" class="edge"><title>n16&#45;&gt;n17</title>
<path fill="none" stroke="black" d="M2049.17,-86.799C2049.17,-75.1626 2049.17,-59.5479 2049.17,-46.2368"/>
<polygon fill="black" stroke="black" points="2052.67,-46.1754 2049.17,-36.1754 2045.67,-46.1755 2052.67,-46.1754"/>
<text text-anchor="middle" x="2084.17" y="-57.8" font-family="Times New Roman,serif" font-size="14.00">inContextOf</text>
</g>
<!-- n18 -->
<g id="node18" class="node"><title>n18</title>
<polygon fill="none" stroke="black" points="1228.67,-123 1163.67,-123 1163.67,-87 1228.67,-87 1228.67,-123"/>
<text text-anchor="middle" x="1196.17" y="-101.3" font-family="Times New Roman,serif" font-size="14.00">G1.1.2.1</text>
</g>
<!-- n18&#45;&gt;n2 -->
<g id="edge18" class="edge"><title>n18&#45;&gt;n2</title>
<path fill="none" stroke="black" d="M1163.48,-90.2062C1149.86,-84.1386 1134.03,-76.6569 1120.17,-69 1109.49,-63.0984 1108.6,-58.2606 1097.17,-54 1022.71,-26.261 928.8,-20.1329 877.625,-19.003"/>
<polygon fill="black" stroke="black" points="877.433,-15.4994 867.376,-18.8317 877.316,-22.4984 877.433,-15.4994"/>
<text text-anchor="middle" x="1155.17" y="-57.8" font-family="Times New Roman,serif" font-size="14.00">inContextOf</text>
</g>
<!-- n18&#45;&gt;n9 -->
<g id="edge17" class="edge"><title>n18&#45;&gt;n9</title>
<path fill="none" stroke="black" d="M1228.95,-99.303C1277.7,-92.0703 1364.79,-78.0919 1376.17,-69 1383.41,-63.213 1388.33,-54.5555 1391.64,-46.0633"/>
<polygon fill="black" stroke="black" points="1395.04,-46.9449 1394.84,-36.352 1388.39,-44.7564 1395.04,-46.9449"/>
<text text-anchor="middle" x="1423.17" y="-57.8" font-family="Times New Roman,serif" font-size="14.00">inContextOf</text>
</g>
<!-- n19 -->
<g id="node19" class="node"><title>n19</title>
<polygon fill="none" stroke="black" points="210.167,-123 156.167,-123 156.167,-87 210.167,-87 210.167,-123"/>
<text text-anchor="middle" x="183.167" y="-101.3" font-family="Times New Roman,serif" font-size="14.00">G1</text>
</g>
<!-- n19&#45;&gt;n2 -->
<g id="edge19" class="edge"><title>n19&#45;&gt;n2</title>
<path fill="none" stroke="black" d="M210.296,-99.8283C244.134,-94.3033 303.575,-83.5351 353.167,-69 370.989,-63.7766 374.054,-58.0994 392.167,-54 431.72,-45.0485 702.556,-27.5493 802.886,-21.2924"/>
<polygon fill="black" stroke="black" points="803.391,-24.7679 813.155,-20.6542 802.957,-17.7813 803.391,-24.7679"/>
<text text-anchor="middle" x="427.167" y="-57.8" font-family="Times New Roman,serif" font-size="14.00">inContextOf</text>
</g>
<!-- n19&#45;&gt;n7 -->
<g id="edge20" class="edge"><title>n19&#45;&gt;n7</title>
<path fill="none" stroke="black" d="M155.8,-93.6932C131.307,-84.341 98.9704,-71.6237 97.1672,-69 92.6536,-62.4328 91.248,-54.1477 91.3018,-46.2206"/>
<polygon fill="black" stroke="black" points="94.7968,-46.4198 92.0747,-36.1806 87.8174,-45.8824 94.7968,-46.4198"/>
<text text-anchor="middle" x="132.167" y="-57.8" font-family="Times New Roman,serif" font-size="14.00">inContextOf</text>
</g>
<!-- n20 -->
<g id="node20" class="node"><title>n20</title>
<polygon fill="none" stroke="black" points="1378.67,-123 1323.67,-123 1323.67,-87 1378.67,-87 1378.67,-123"/>
<text text-anchor="middle" x="1351.17" y="-101.3" font-family="Times New Roman,serif" font-size="14.00">G1.2.1</text>
</g>
<!-- n20&#45;&gt;n2 -->
<g id="edge21" class="edge"><title>n20&#45;&gt;n2</title>
<path fill="none" stroke="black" d="M1323.55,-100.739C1294.04,-96.4598 1246.46,-87.2428 1209.17,-69 1199.5,-64.2721 1200.14,-58.0304 1190.17,-54 1134.2,-31.3865 955.935,-22.8264 877.646,-20.1004"/>
<polygon fill="black" stroke="black" points="877.397,-16.5902 867.286,-19.7536 877.163,-23.5863 877.397,-16.5902"/>
<text text-anchor="middle" x="1244.17" y="-57.8" font-family="Times New Roman,serif" font-size="14.00">inContextOf</text>
</g>
<!-- n20&#45;&gt;n9 -->
<g id="edge22" class="edge"><title>n20&#45;&gt;n9</title>
<path fill="none" stroke="black" d="M1378.84,-104.529C1406.71,-103.388 1448.46,-96.7405 1469.17,-69 1482.09,-51.6918 1458.31,-38.097 1434.87,-29.4798"/>
<polygon fill="black" stroke="black" points="1435.88,-26.1294 1425.29,-26.2049 1433.62,-32.7527 1435.88,-26.1294"/>
<text text-anchor="middle" x="1508.17" y="-57.8" font-family="Times New Roman,serif" font-size="14.00">inContextOf</text>
</g>
<!-- n21 -->
<g id="node21" class="node"><title>n21</title>
<polygon fill="none" stroke="black" points="1890.17,-123 1836.17,-123 1836.17,-87 1890.17,-87 1890.17,-123"/>
<text text-anchor="middle" x="1863.17" y="-101.3" font-family="Times New Roman,serif" font-size="14.00">S1.1.2</text>
</g>
<!-- n21&#45;&gt;n13 -->
<g id="edge23" class="edge"><title>n21&#45;&gt;n13</title>
<path fill="none" stroke="black" d="M1858.78,-86.536C1855.4,-76.0532 1849.82,-63.0423 1841.17,-54 1831.72,-44.1308 1818.9,-36.6484 1806.75,-31.1873"/>
<polygon fill="black" stroke="black" points="1807.81,-27.8372 1797.24,-27.2341 1805.13,-34.3019 1807.81,-27.8372"/>
<text text-anchor="middle" x="1887.17" y="-57.8" font-family="Times New Roman,serif" font-size="14.00">inContextOf</text>
</g>
</g>
</svg>
