<?xml version="1.0" encoding="UTF-8" standalone="no"?>
<!DOCTYPE svg PUBLIC "-//W3C//DTD SVG 1.1//EN"
 "http://www.w3.org/Graphics/SVG/1.1/DTD/svg11.dtd">
<!-- Generated by graphviz version 2.38.0 (20140413.2041)
 -->
<!-- Title: gTestDeliveryDroneQueries_sadl0 Pages: 1 -->
<svg width="1604pt" height="784pt"
 viewBox="0.00 0.00 1604.00 784.00" xmlns="http://www.w3.org/2000/svg" xmlns:xlink="http://www.w3.org/1999/xlink">
<g id="graph0" class="graph" transform="scale(1 1) rotate(0) translate(4 780)">
<title>gTestDeliveryDroneQueries_sadl0</title>
<polygon fill="white" stroke="none" points="-4,4 -4,-780 1600,-780 1600,4 -4,4"/>
<text text-anchor="middle" x="53.5" y="-760.8" font-family="Times New Roman,serif" font-size="14.00">Cmd 1 &#160;(Graph)</text>
<!-- n1 -->
<g id="node1" class="node"><title>n1</title>
<polygon fill="none" stroke="black" points="662.5,-384 607.5,-384 607.5,-348 662.5,-348 662.5,-384"/>
<text text-anchor="middle" x="635" y="-362.3" font-family="Times New Roman,serif" font-size="14.00">G1.1.1</text>
</g>
<!-- n2 -->
<g id="node2" class="node"><title>n2</title>
<polygon fill="none" stroke="black" points="709,-297 655,-297 655,-261 709,-261 709,-297"/>
<text text-anchor="middle" x="682" y="-275.3" font-family="Times New Roman,serif" font-size="14.00">S1.1.1</text>
</g>
<!-- n1&#45;&gt;n2 -->
<g id="edge1" class="edge"><title>n1&#45;&gt;n2</title>
<path fill="none" stroke="black" d="M648.451,-347.663C652.418,-342.17 656.602,-335.971 660,-330 664.222,-322.582 668.194,-314.2 671.571,-306.448"/>
<polygon fill="black" stroke="black" points="674.857,-307.662 675.503,-297.087 668.403,-304.951 674.857,-307.662"/>
<text text-anchor="middle" x="704.5" y="-318.8" font-family="Times New Roman,serif" font-size="14.00">supportedBy</text>
</g>
<!-- n3 -->
<g id="node3" class="node"><title>n3</title>
<polygon fill="none" stroke="black" points="906,-123 852,-123 852,-87 906,-87 906,-123"/>
<text text-anchor="middle" x="879" y="-101.3" font-family="Times New Roman,serif" font-size="14.00">C1</text>
</g>
<!-- n1&#45;&gt;n3 -->
<g id="edge2" class="edge"><title>n1&#45;&gt;n3</title>
<path fill="none" stroke="black" d="M607.305,-348.694C598.84,-343.198 589.732,-336.737 582,-330 547.51,-299.949 537.178,-287.599 527,-243 519.304,-209.277 534.401,-193.456 563,-174 649.845,-114.92 778.621,-105.881 841.589,-105.291"/>
<polygon fill="black" stroke="black" points="841.844,-108.791 851.836,-105.266 841.827,-101.791 841.844,-108.791"/>
<text text-anchor="middle" x="562" y="-231.8" font-family="Times New Roman,serif" font-size="14.00">inContextOf</text>
</g>
<!-- n4 -->
<g id="node4" class="node"><title>n4</title>
<polygon fill="none" stroke="black" points="616,-297 562,-297 562,-261 616,-261 616,-297"/>
<text text-anchor="middle" x="589" y="-275.3" font-family="Times New Roman,serif" font-size="14.00">C5</text>
</g>
<!-- n1&#45;&gt;n4 -->
<g id="edge3" class="edge"><title>n1&#45;&gt;n4</title>
<path fill="none" stroke="black" d="M607.341,-349.623C600.442,-344.354 593.905,-337.785 590,-330 586.521,-323.064 585.35,-314.876 585.298,-307.157"/>
<polygon fill="black" stroke="black" points="588.798,-307.247 585.811,-297.082 581.807,-306.891 588.798,-307.247"/>
<text text-anchor="middle" x="625" y="-318.8" font-family="Times New Roman,serif" font-size="14.00">inContextOf</text>
</g>
<!-- n10 -->
<g id="node10" class="node"><title>n10</title>
<polygon fill="none" stroke="black" points="813,-210 759,-210 759,-174 813,-174 813,-210"/>
<text text-anchor="middle" x="786" y="-188.3" font-family="Times New Roman,serif" font-size="14.00">C6</text>
</g>
<!-- n2&#45;&gt;n10 -->
<g id="edge19" class="edge"><title>n2&#45;&gt;n10</title>
<path fill="none" stroke="black" d="M685.305,-260.835C688.137,-250.203 693.205,-236.922 702,-228 714.675,-215.142 732.773,-206.789 748.927,-201.482"/>
<polygon fill="black" stroke="black" points="750.096,-204.785 758.668,-198.557 748.084,-198.081 750.096,-204.785"/>
<text text-anchor="middle" x="737" y="-231.8" font-family="Times New Roman,serif" font-size="14.00">inContextOf</text>
</g>
<!-- n18 -->
<g id="node18" class="node"><title>n18</title>
<polygon fill="none" stroke="black" points="637.5,-210 572.5,-210 572.5,-174 637.5,-174 637.5,-210"/>
<text text-anchor="middle" x="605" y="-188.3" font-family="Times New Roman,serif" font-size="14.00">G1.1.1.1</text>
</g>
<!-- n2&#45;&gt;n18 -->
<g id="edge18" class="edge"><title>n2&#45;&gt;n18</title>
<path fill="none" stroke="black" d="M654.69,-273.034C637.593,-268.374 616.82,-259.529 606,-243 601.636,-236.333 600.272,-228.019 600.319,-220.097"/>
<polygon fill="black" stroke="black" points="603.812,-220.31 601.058,-210.079 596.831,-219.794 603.812,-220.31"/>
<text text-anchor="middle" x="642.5" y="-231.8" font-family="Times New Roman,serif" font-size="14.00">supportedBy</text>
</g>
<!-- n5 -->
<g id="node5" class="node"><title>n5</title>
<polygon fill="none" stroke="black" points="1197,-666 1143,-666 1143,-630 1197,-630 1197,-666"/>
<text text-anchor="middle" x="1170" y="-644.3" font-family="Times New Roman,serif" font-size="14.00">S1</text>
</g>
<!-- n6 -->
<g id="node6" class="node"><title>n6</title>
<polygon fill="none" stroke="black" points="1213,-579 1159,-579 1159,-543 1213,-543 1213,-579"/>
<text text-anchor="middle" x="1186" y="-557.3" font-family="Times New Roman,serif" font-size="14.00">G1.2</text>
</g>
<!-- n5&#45;&gt;n6 -->
<g id="edge4" class="edge"><title>n5&#45;&gt;n6</title>
<path fill="none" stroke="black" d="M1173.24,-629.799C1175.43,-618.163 1178.37,-602.548 1180.87,-589.237"/>
<polygon fill="black" stroke="black" points="1184.36,-589.65 1182.77,-579.175 1177.48,-588.355 1184.36,-589.65"/>
<text text-anchor="middle" x="1214.5" y="-600.8" font-family="Times New Roman,serif" font-size="14.00">supportedBy</text>
</g>
<!-- n7 -->
<g id="node7" class="node"><title>n7</title>
<polygon fill="none" stroke="black" points="1081,-579 1027,-579 1027,-543 1081,-543 1081,-579"/>
<text text-anchor="middle" x="1054" y="-557.3" font-family="Times New Roman,serif" font-size="14.00">G1.1</text>
</g>
<!-- n5&#45;&gt;n7 -->
<g id="edge5" class="edge"><title>n5&#45;&gt;n7</title>
<path fill="none" stroke="black" d="M1142.75,-636.165C1129.22,-630.11 1113.03,-621.807 1100,-612 1090.48,-604.83 1081.3,-595.529 1073.69,-586.896"/>
<polygon fill="black" stroke="black" points="1076.31,-584.582 1067.17,-579.237 1070.98,-589.12 1076.31,-584.582"/>
<text text-anchor="middle" x="1136.5" y="-600.8" font-family="Times New Roman,serif" font-size="14.00">supportedBy</text>
</g>
<!-- n6&#45;&gt;n3 -->
<g id="edge17" class="edge"><title>n6&#45;&gt;n3</title>
<path fill="none" stroke="black" d="M1158.8,-555.871C1140.51,-551.529 1117.68,-542.723 1106,-525 1033.38,-414.77 1159.42,-347.808 1104,-228 1070.09,-154.686 970.886,-123.975 916.216,-112.33"/>
<polygon fill="black" stroke="black" points="916.726,-108.863 906.23,-110.31 915.338,-115.724 916.726,-108.863"/>
<text text-anchor="middle" x="1151" y="-318.8" font-family="Times New Roman,serif" font-size="14.00">inContextOf</text>
</g>
<!-- n14 -->
<g id="node14" class="node"><title>n14</title>
<polygon fill="none" stroke="black" points="1245,-492 1191,-492 1191,-456 1245,-456 1245,-492"/>
<text text-anchor="middle" x="1218" y="-470.3" font-family="Times New Roman,serif" font-size="14.00">C2</text>
</g>
<!-- n6&#45;&gt;n14 -->
<g id="edge16" class="edge"><title>n6&#45;&gt;n14</title>
<path fill="none" stroke="black" d="M1192.48,-542.799C1196.9,-531.047 1202.85,-515.238 1207.89,-501.842"/>
<polygon fill="black" stroke="black" points="1211.29,-502.767 1211.53,-492.175 1204.74,-500.301 1211.29,-502.767"/>
<text text-anchor="middle" x="1238" y="-513.8" font-family="Times New Roman,serif" font-size="14.00">inContextOf</text>
</g>
<!-- n17 -->
<g id="node17" class="node"><title>n17</title>
<polygon fill="none" stroke="black" points="1363,-438 1309,-438 1309,-402 1363,-402 1363,-438"/>
<text text-anchor="middle" x="1336" y="-416.3" font-family="Times New Roman,serif" font-size="14.00">S1.2</text>
</g>
<!-- n6&#45;&gt;n17 -->
<g id="edge15" class="edge"><title>n6&#45;&gt;n17</title>
<path fill="none" stroke="black" d="M1213.23,-554.691C1232.78,-549.738 1258.79,-540.685 1277,-525 1301.12,-504.232 1317.51,-471.039 1326.78,-447.751"/>
<polygon fill="black" stroke="black" points="1330.15,-448.727 1330.43,-438.136 1323.61,-446.243 1330.15,-448.727"/>
<text text-anchor="middle" x="1327.5" y="-513.8" font-family="Times New Roman,serif" font-size="14.00">supportedBy</text>
</g>
<!-- n7&#45;&gt;n3 -->
<g id="edge27" class="edge"><title>n7&#45;&gt;n3</title>
<path fill="none" stroke="black" d="M1049.75,-542.794C1040.48,-504.681 1018.18,-410.17 1005,-330 991.285,-246.552 1036.24,-206.703 983,-141 966.878,-121.105 939.015,-112.453 916.185,-108.723"/>
<polygon fill="black" stroke="black" points="916.494,-105.232 906.11,-107.332 915.537,-112.167 916.494,-105.232"/>
<text text-anchor="middle" x="1040" y="-318.8" font-family="Times New Roman,serif" font-size="14.00">inContextOf</text>
</g>
<!-- n7&#45;&gt;n14 -->
<g id="edge28" class="edge"><title>n7&#45;&gt;n14</title>
<path fill="none" stroke="black" d="M1075.81,-542.767C1089.64,-532.371 1108.23,-519.37 1126,-510 1143.44,-500.805 1163.84,-492.79 1181,-486.758"/>
<polygon fill="black" stroke="black" points="1182.35,-489.994 1190.68,-483.442 1180.08,-483.372 1182.35,-489.994"/>
<text text-anchor="middle" x="1161" y="-513.8" font-family="Times New Roman,serif" font-size="14.00">inContextOf</text>
</g>
<!-- n23 -->
<g id="node23" class="node"><title>n23</title>
<polygon fill="none" stroke="black" points="790,-492 736,-492 736,-456 790,-456 790,-492"/>
<text text-anchor="middle" x="763" y="-470.3" font-family="Times New Roman,serif" font-size="14.00">S1.1</text>
</g>
<!-- n7&#45;&gt;n23 -->
<g id="edge26" class="edge"><title>n7&#45;&gt;n23</title>
<path fill="none" stroke="black" d="M1026.94,-553.789C998.817,-547.193 953.6,-536.193 915,-525 875.328,-513.496 830.462,-498.488 799.82,-487.927"/>
<polygon fill="black" stroke="black" points="800.597,-484.492 790.002,-484.527 798.306,-491.107 800.597,-484.492"/>
<text text-anchor="middle" x="951.5" y="-513.8" font-family="Times New Roman,serif" font-size="14.00">supportedBy</text>
</g>
<!-- n8 -->
<g id="node8" class="node"><title>n8</title>
<polygon fill="none" stroke="black" points="966,-297 912,-297 912,-261 966,-261 966,-297"/>
<text text-anchor="middle" x="939" y="-275.3" font-family="Times New Roman,serif" font-size="14.00">S1.1.2</text>
</g>
<!-- n9 -->
<g id="node9" class="node"><title>n9</title>
<polygon fill="none" stroke="black" points="1242.5,-210 1177.5,-210 1177.5,-174 1242.5,-174 1242.5,-210"/>
<text text-anchor="middle" x="1210" y="-188.3" font-family="Times New Roman,serif" font-size="14.00">G1.1.2.1</text>
</g>
<!-- n8&#45;&gt;n9 -->
<g id="edge6" class="edge"><title>n8&#45;&gt;n9</title>
<path fill="none" stroke="black" d="M966.225,-269.461C1013.58,-254.607 1111.43,-223.917 1167.69,-206.27"/>
<polygon fill="black" stroke="black" points="1168.86,-209.571 1177.36,-203.238 1166.77,-202.891 1168.86,-209.571"/>
<text text-anchor="middle" x="1126.5" y="-231.8" font-family="Times New Roman,serif" font-size="14.00">supportedBy</text>
</g>
<!-- n8&#45;&gt;n10 -->
<g id="edge7" class="edge"><title>n8&#45;&gt;n10</title>
<path fill="none" stroke="black" d="M911.935,-272.274C881.577,-265.468 834.662,-253.686 820,-243 811.437,-236.759 804.341,-227.666 798.886,-218.941"/>
<polygon fill="black" stroke="black" points="801.827,-217.035 793.803,-210.116 795.762,-220.529 801.827,-217.035"/>
<text text-anchor="middle" x="855" y="-231.8" font-family="Times New Roman,serif" font-size="14.00">inContextOf</text>
</g>
<!-- n9&#45;&gt;n3 -->
<g id="edge14" class="edge"><title>n9&#45;&gt;n3</title>
<path fill="none" stroke="black" d="M1177.41,-187.013C1145.51,-182.328 1096.02,-172.951 1056,-156 1044.76,-151.24 1044.24,-145.76 1033,-141 994.894,-124.858 948.188,-115.584 916.27,-110.69"/>
<polygon fill="black" stroke="black" points="916.447,-107.179 906.046,-109.195 915.434,-114.105 916.447,-107.179"/>
<text text-anchor="middle" x="1091" y="-144.8" font-family="Times New Roman,serif" font-size="14.00">inContextOf</text>
</g>
<!-- n15 -->
<g id="node15" class="node"><title>n15</title>
<polygon fill="none" stroke="black" points="1458.5,-123 1395.5,-123 1395.5,-87 1458.5,-87 1458.5,-123"/>
<text text-anchor="middle" x="1427" y="-101.3" font-family="Times New Roman,serif" font-size="14.00">S1.1.2.1</text>
</g>
<!-- n9&#45;&gt;n15 -->
<g id="edge12" class="edge"><title>n9&#45;&gt;n15</title>
<path fill="none" stroke="black" d="M1242.52,-184.713C1293.21,-174.896 1385.45,-156.942 1387,-156 1396.94,-149.967 1405.43,-140.519 1412,-131.453"/>
<polygon fill="black" stroke="black" points="1415.01,-133.25 1417.7,-123.002 1409.21,-129.338 1415.01,-133.25"/>
<text text-anchor="middle" x="1440.5" y="-144.8" font-family="Times New Roman,serif" font-size="14.00">supportedBy</text>
</g>
<!-- n16 -->
<g id="node16" class="node"><title>n16</title>
<polygon fill="none" stroke="black" points="1268,-123 1214,-123 1214,-87 1268,-87 1268,-123"/>
<text text-anchor="middle" x="1241" y="-101.3" font-family="Times New Roman,serif" font-size="14.00">C4</text>
</g>
<!-- n9&#45;&gt;n16 -->
<g id="edge13" class="edge"><title>n9&#45;&gt;n16</title>
<path fill="none" stroke="black" d="M1216.27,-173.799C1220.56,-162.047 1226.32,-146.238 1231.21,-132.842"/>
<polygon fill="black" stroke="black" points="1234.6,-133.769 1234.74,-123.175 1228.02,-131.371 1234.6,-133.769"/>
<text text-anchor="middle" x="1262" y="-144.8" font-family="Times New Roman,serif" font-size="14.00">inContextOf</text>
</g>
<!-- n11 -->
<g id="node11" class="node"><title>n11</title>
<polygon fill="none" stroke="black" points="1550,-123 1496,-123 1496,-87 1550,-87 1550,-123"/>
<text text-anchor="middle" x="1523" y="-101.3" font-family="Times New Roman,serif" font-size="14.00">S1.2.1</text>
</g>
<!-- n12 -->
<g id="node12" class="node"><title>n12</title>
<polygon fill="none" stroke="black" points="1550,-36 1496,-36 1496,-0 1550,-0 1550,-36"/>
<text text-anchor="middle" x="1523" y="-14.3" font-family="Times New Roman,serif" font-size="14.00">E4</text>
</g>
<!-- n11&#45;&gt;n12 -->
<g id="edge8" class="edge"><title>n11&#45;&gt;n12</title>
<path fill="none" stroke="black" d="M1523,-86.799C1523,-75.1626 1523,-59.5479 1523,-46.2368"/>
<polygon fill="black" stroke="black" points="1526.5,-46.1754 1523,-36.1754 1519.5,-46.1755 1526.5,-46.1754"/>
<text text-anchor="middle" x="1559.5" y="-57.8" font-family="Times New Roman,serif" font-size="14.00">supportedBy</text>
</g>
<!-- n13 -->
<g id="node13" class="node"><title>n13</title>
<polygon fill="none" stroke="black" points="1197,-753 1143,-753 1143,-717 1197,-717 1197,-753"/>
<text text-anchor="middle" x="1170" y="-731.3" font-family="Times New Roman,serif" font-size="14.00">G1</text>
</g>
<!-- n13&#45;&gt;n3 -->
<g id="edge10" class="edge"><title>n13&#45;&gt;n3</title>
<path fill="none" stroke="black" d="M1142.81,-733.891C1006.71,-732.992 406,-724.737 406,-649 406,-649 406,-649 406,-365 406,-235.881 467.357,-178.205 591,-141 678.224,-114.753 785.936,-108.123 841.662,-106.492"/>
<polygon fill="black" stroke="black" points="841.861,-109.988 851.769,-106.235 841.683,-102.991 841.861,-109.988"/>
<text text-anchor="middle" x="441" y="-416.3" font-family="Times New Roman,serif" font-size="14.00">inContextOf</text>
</g>
<!-- n13&#45;&gt;n5 -->
<g id="edge9" class="edge"><title>n13&#45;&gt;n5</title>
<path fill="none" stroke="black" d="M1170,-716.799C1170,-705.163 1170,-689.548 1170,-676.237"/>
<polygon fill="black" stroke="black" points="1173.5,-676.175 1170,-666.175 1166.5,-676.175 1173.5,-676.175"/>
<text text-anchor="middle" x="1206.5" y="-687.8" font-family="Times New Roman,serif" font-size="14.00">supportedBy</text>
</g>
<!-- n13&#45;&gt;n14 -->
<g id="edge11" class="edge"><title>n13&#45;&gt;n14</title>
<path fill="none" stroke="black" d="M1197.23,-728.451C1214.14,-723.567 1234.89,-714.692 1247,-699 1298.98,-631.677 1319.09,-583.907 1277,-510 1271.83,-500.919 1263.27,-493.951 1254.25,-488.714"/>
<polygon fill="black" stroke="black" points="1255.69,-485.515 1245.19,-484.041 1252.48,-491.736 1255.69,-485.515"/>
<text text-anchor="middle" x="1333" y="-600.8" font-family="Times New Roman,serif" font-size="14.00">inContextOf</text>
</g>
<!-- n19 -->
<g id="node19" class="node"><title>n19</title>
<polygon fill="none" stroke="black" points="1360,-36 1306,-36 1306,-0 1360,-0 1360,-36"/>
<text text-anchor="middle" x="1333" y="-14.3" font-family="Times New Roman,serif" font-size="14.00">E2</text>
</g>
<!-- n15&#45;&gt;n19 -->
<g id="edge20" class="edge"><title>n15&#45;&gt;n19</title>
<path fill="none" stroke="black" d="M1395.3,-96.0528C1379.78,-90.7088 1361.93,-82.1694 1350,-69 1344.2,-62.5972 1340.37,-54.1347 1337.84,-45.9958"/>
<polygon fill="black" stroke="black" points="1341.16,-44.855 1335.28,-36.0391 1334.38,-46.5953 1341.16,-44.855"/>
<text text-anchor="middle" x="1386.5" y="-57.8" font-family="Times New Roman,serif" font-size="14.00">supportedBy</text>
</g>
<!-- n20 -->
<g id="node20" class="node"><title>n20</title>
<polygon fill="none" stroke="black" points="1456,-36 1402,-36 1402,-0 1456,-0 1456,-36"/>
<text text-anchor="middle" x="1429" y="-14.3" font-family="Times New Roman,serif" font-size="14.00">C9</text>
</g>
<!-- n15&#45;&gt;n20 -->
<g id="edge21" class="edge"><title>n15&#45;&gt;n20</title>
<path fill="none" stroke="black" d="M1427.4,-86.799C1427.68,-75.1626 1428.05,-59.5479 1428.36,-46.2368"/>
<polygon fill="black" stroke="black" points="1431.86,-46.255 1428.6,-36.1754 1424.86,-46.0903 1431.86,-46.255"/>
<text text-anchor="middle" x="1463" y="-57.8" font-family="Times New Roman,serif" font-size="14.00">inContextOf</text>
</g>
<!-- n24 -->
<g id="node24" class="node"><title>n24</title>
<polygon fill="none" stroke="black" points="1361.5,-210 1306.5,-210 1306.5,-174 1361.5,-174 1361.5,-210"/>
<text text-anchor="middle" x="1334" y="-188.3" font-family="Times New Roman,serif" font-size="14.00">G1.2.1</text>
</g>
<!-- n17&#45;&gt;n24 -->
<g id="edge29" class="edge"><title>n17&#45;&gt;n24</title>
<path fill="none" stroke="black" d="M1335.85,-401.641C1335.5,-362.518 1334.66,-267.209 1334.24,-220.172"/>
<polygon fill="black" stroke="black" points="1337.74,-220.077 1334.15,-210.108 1330.74,-220.139 1337.74,-220.077"/>
<text text-anchor="middle" x="1371.5" y="-318.8" font-family="Times New Roman,serif" font-size="14.00">supportedBy</text>
</g>
<!-- n18&#45;&gt;n3 -->
<g id="edge24" class="edge"><title>n18&#45;&gt;n3</title>
<path fill="none" stroke="black" d="M637.507,-180.916C688.78,-165.01 788.125,-134.191 842.037,-117.467"/>
<polygon fill="black" stroke="black" points="843.356,-120.722 851.87,-114.416 841.282,-114.036 843.356,-120.722"/>
<text text-anchor="middle" x="794" y="-144.8" font-family="Times New Roman,serif" font-size="14.00">inContextOf</text>
</g>
<!-- n18&#45;&gt;n16 -->
<g id="edge25" class="edge"><title>n18&#45;&gt;n16</title>
<path fill="none" stroke="black" d="M637.674,-186.198C700.077,-177.067 840.556,-156.714 959,-141 1046.57,-129.382 1149.6,-116.893 1203.63,-110.436"/>
<polygon fill="black" stroke="black" points="1204.24,-113.887 1213.76,-109.227 1203.41,-106.936 1204.24,-113.887"/>
<text text-anchor="middle" x="994" y="-144.8" font-family="Times New Roman,serif" font-size="14.00">inContextOf</text>
</g>
<!-- n21 -->
<g id="node21" class="node"><title>n21</title>
<polygon fill="none" stroke="black" points="433.5,-123 370.5,-123 370.5,-87 433.5,-87 433.5,-123"/>
<text text-anchor="middle" x="402" y="-101.3" font-family="Times New Roman,serif" font-size="14.00">S1.1.1.1</text>
</g>
<!-- n18&#45;&gt;n21 -->
<g id="edge22" class="edge"><title>n18&#45;&gt;n21</title>
<path fill="none" stroke="black" d="M572.385,-177.343C537.152,-162.591 480.953,-139.059 442.816,-123.09"/>
<polygon fill="black" stroke="black" points="444.108,-119.837 433.533,-119.203 441.405,-126.294 444.108,-119.837"/>
<text text-anchor="middle" x="552.5" y="-144.8" font-family="Times New Roman,serif" font-size="14.00">supportedBy</text>
</g>
<!-- n22 -->
<g id="node22" class="node"><title>n22</title>
<polygon fill="none" stroke="black" points="243,-123 189,-123 189,-87 243,-87 243,-123"/>
<text text-anchor="middle" x="216" y="-101.3" font-family="Times New Roman,serif" font-size="14.00">C3</text>
</g>
<!-- n18&#45;&gt;n22 -->
<g id="edge23" class="edge"><title>n18&#45;&gt;n22</title>
<path fill="none" stroke="black" d="M572.455,-185.495C535.057,-179.033 471.902,-167.705 418,-156 360.027,-143.411 293.316,-126.4 252.928,-115.82"/>
<polygon fill="black" stroke="black" points="253.564,-112.368 243.003,-113.21 251.784,-119.138 253.564,-112.368"/>
<text text-anchor="middle" x="453" y="-144.8" font-family="Times New Roman,serif" font-size="14.00">inContextOf</text>
</g>
<!-- n25 -->
<g id="node25" class="node"><title>n25</title>
<polygon fill="none" stroke="black" points="381,-36 327,-36 327,-0 381,-0 381,-36"/>
<text text-anchor="middle" x="354" y="-14.3" font-family="Times New Roman,serif" font-size="14.00">E1</text>
</g>
<!-- n21&#45;&gt;n25 -->
<g id="edge30" class="edge"><title>n21&#45;&gt;n25</title>
<path fill="none" stroke="black" d="M370.216,-86.6189C364.118,-81.7523 358.539,-75.8748 355,-69 351.449,-62.1005 350.255,-53.9243 350.206,-46.2037"/>
<polygon fill="black" stroke="black" points="353.706,-46.2902 350.734,-36.1208 346.716,-45.9239 353.706,-46.2902"/>
<text text-anchor="middle" x="391.5" y="-57.8" font-family="Times New Roman,serif" font-size="14.00">supportedBy</text>
</g>
<!-- n26 -->
<g id="node26" class="node"><title>n26</title>
<polygon fill="none" stroke="black" points="477,-36 423,-36 423,-0 477,-0 477,-36"/>
<text text-anchor="middle" x="450" y="-14.3" font-family="Times New Roman,serif" font-size="14.00">C10</text>
</g>
<!-- n21&#45;&gt;n26 -->
<g id="edge31" class="edge"><title>n21&#45;&gt;n26</title>
<path fill="none" stroke="black" d="M416.03,-86.7238C420.157,-81.2335 424.499,-75.0201 428,-69 432.291,-61.6215 436.284,-53.2512 439.658,-45.4984"/>
<polygon fill="black" stroke="black" points="442.947,-46.7057 443.577,-36.1296 436.489,-44.0044 442.947,-46.7057"/>
<text text-anchor="middle" x="471" y="-57.8" font-family="Times New Roman,serif" font-size="14.00">inContextOf</text>
</g>
<!-- n23&#45;&gt;n1 -->
<g id="edge33" class="edge"><title>n23&#45;&gt;n1</title>
<path fill="none" stroke="black" d="M735.938,-456.878C727.103,-451.246 717.407,-444.659 709,-438 690.983,-423.729 672.319,-405.796 658.243,-391.524"/>
<polygon fill="black" stroke="black" points="660.414,-388.737 650.928,-384.018 655.401,-393.622 660.414,-388.737"/>
<text text-anchor="middle" x="745.5" y="-416.3" font-family="Times New Roman,serif" font-size="14.00">supportedBy</text>
</g>
<!-- n27 -->
<g id="node27" class="node"><title>n27</title>
<polygon fill="none" stroke="black" points="196.5,-210 141.5,-210 141.5,-174 196.5,-174 196.5,-210"/>
<text text-anchor="middle" x="169" y="-188.3" font-family="Times New Roman,serif" font-size="14.00">G1.1.3</text>
</g>
<!-- n23&#45;&gt;n27 -->
<g id="edge32" class="edge"><title>n23&#45;&gt;n27</title>
<path fill="none" stroke="black" d="M735.926,-464.138C716.296,-457.494 689.229,-447.88 666,-438 489.554,-362.954 286.585,-256.249 205.355,-212.677"/>
<polygon fill="black" stroke="black" points="206.979,-209.576 196.514,-207.926 203.666,-215.742 206.979,-209.576"/>
<text text-anchor="middle" x="470.5" y="-318.8" font-family="Times New Roman,serif" font-size="14.00">supportedBy</text>
</g>
<!-- n28 -->
<g id="node28" class="node"><title>n28</title>
<polygon fill="none" stroke="black" points="854.5,-384 799.5,-384 799.5,-348 854.5,-348 854.5,-384"/>
<text text-anchor="middle" x="827" y="-362.3" font-family="Times New Roman,serif" font-size="14.00">G1.1.2</text>
</g>
<!-- n23&#45;&gt;n28 -->
<g id="edge34" class="edge"><title>n23&#45;&gt;n28</title>
<path fill="none" stroke="black" d="M773.283,-455.969C783.532,-438.994 799.409,-412.698 811.248,-393.09"/>
<polygon fill="black" stroke="black" points="814.358,-394.71 816.53,-384.341 808.365,-391.092 814.358,-394.71"/>
<text text-anchor="middle" x="841.5" y="-416.3" font-family="Times New Roman,serif" font-size="14.00">supportedBy</text>
</g>
<!-- n24&#45;&gt;n3 -->
<g id="edge42" class="edge"><title>n24&#45;&gt;n3</title>
<path fill="none" stroke="black" d="M1306.34,-185.039C1290.46,-181.675 1270.14,-177.464 1252,-174 1206.35,-165.282 1192.23,-173.041 1149,-156 1137.65,-151.525 1137.42,-145.292 1126,-141 1055.18,-114.396 966.001,-107.802 916.495,-106.298"/>
<polygon fill="black" stroke="black" points="916.345,-102.793 906.261,-106.043 916.171,-109.791 916.345,-102.793"/>
<text text-anchor="middle" x="1184" y="-144.8" font-family="Times New Roman,serif" font-size="14.00">inContextOf</text>
</g>
<!-- n24&#45;&gt;n11 -->
<g id="edge41" class="edge"><title>n24&#45;&gt;n11</title>
<path fill="none" stroke="black" d="M1361.52,-188.288C1403.24,-183.68 1479.89,-173.12 1501,-156 1508.2,-150.161 1513.11,-141.491 1516.43,-133.003"/>
<polygon fill="black" stroke="black" points="1519.82,-133.897 1519.63,-123.304 1513.17,-131.7 1519.82,-133.897"/>
<text text-anchor="middle" x="1548.5" y="-144.8" font-family="Times New Roman,serif" font-size="14.00">supportedBy</text>
</g>
<!-- n24&#45;&gt;n16 -->
<g id="edge43" class="edge"><title>n24&#45;&gt;n16</title>
<path fill="none" stroke="black" d="M1325.29,-173.813C1319.43,-163.434 1310.97,-150.436 1301,-141 1293.99,-134.365 1285.49,-128.458 1277.13,-123.472"/>
<polygon fill="black" stroke="black" points="1278.62,-120.29 1268.19,-118.431 1275.18,-126.389 1278.62,-120.29"/>
<text text-anchor="middle" x="1348" y="-144.8" font-family="Times New Roman,serif" font-size="14.00">inContextOf</text>
</g>
<!-- n27&#45;&gt;n3 -->
<g id="edge36" class="edge"><title>n27&#45;&gt;n3</title>
<path fill="none" stroke="black" d="M196.602,-175.565C219.108,-163.812 252.111,-148.428 283,-141 337.048,-128.003 719.04,-112.211 841.394,-107.435"/>
<polygon fill="black" stroke="black" points="841.891,-110.918 851.747,-107.033 841.619,-103.924 841.891,-110.918"/>
<text text-anchor="middle" x="318" y="-144.8" font-family="Times New Roman,serif" font-size="14.00">inContextOf</text>
</g>
<!-- n27&#45;&gt;n22 -->
<g id="edge37" class="edge"><title>n27&#45;&gt;n22</title>
<path fill="none" stroke="black" d="M141.395,-176.104C127.487,-166.588 115.25,-153.691 124,-141 136.308,-123.149 159.016,-114.395 178.791,-110.106"/>
<polygon fill="black" stroke="black" points="179.602,-113.515 188.794,-108.246 178.322,-106.633 179.602,-113.515"/>
<text text-anchor="middle" x="159" y="-144.8" font-family="Times New Roman,serif" font-size="14.00">inContextOf</text>
</g>
<!-- n29 -->
<g id="node29" class="node"><title>n29</title>
<polygon fill="none" stroke="black" points="54,-123 0,-123 0,-87 54,-87 54,-123"/>
<text text-anchor="middle" x="27" y="-101.3" font-family="Times New Roman,serif" font-size="14.00">S1.1.3</text>
</g>
<!-- n27&#45;&gt;n29 -->
<g id="edge35" class="edge"><title>n27&#45;&gt;n29</title>
<path fill="none" stroke="black" d="M141.33,-190.261C113.599,-188.066 71.3468,-180.553 45,-156 38.4741,-149.918 34.3101,-141.298 31.6547,-132.925"/>
<polygon fill="black" stroke="black" points="34.9879,-131.833 29.1066,-123.021 28.2086,-133.577 34.9879,-131.833"/>
<text text-anchor="middle" x="81.5" y="-144.8" font-family="Times New Roman,serif" font-size="14.00">supportedBy</text>
</g>
<!-- n28&#45;&gt;n3 -->
<g id="edge40" class="edge"><title>n28&#45;&gt;n3</title>
<path fill="none" stroke="black" d="M840.279,-347.644C856.511,-325.037 882.724,-283.593 890,-243 896.764,-205.263 890.704,-160.929 885.254,-133.145"/>
<polygon fill="black" stroke="black" points="888.609,-132.087 883.147,-123.009 881.755,-133.512 888.609,-132.087"/>
<text text-anchor="middle" x="927" y="-231.8" font-family="Times New Roman,serif" font-size="14.00">inContextOf</text>
</g>
<!-- n28&#45;&gt;n8 -->
<g id="edge38" class="edge"><title>n28&#45;&gt;n8</title>
<path fill="none" stroke="black" d="M854.648,-349.445C864.201,-343.703 874.808,-336.905 884,-330 894.479,-322.128 905.3,-312.633 914.542,-304.041"/>
<polygon fill="black" stroke="black" points="917.031,-306.505 921.893,-297.092 912.222,-301.419 917.031,-306.505"/>
<text text-anchor="middle" x="938.5" y="-318.8" font-family="Times New Roman,serif" font-size="14.00">supportedBy</text>
</g>
<!-- n28&#45;&gt;n10 -->
<g id="edge39" class="edge"><title>n28&#45;&gt;n10</title>
<path fill="none" stroke="black" d="M818.803,-347.783C812.705,-334.267 804.662,-314.818 800,-297 793.325,-271.485 789.722,-241.57 787.852,-220.39"/>
<polygon fill="black" stroke="black" points="791.321,-219.865 787.024,-210.18 784.344,-220.431 791.321,-219.865"/>
<text text-anchor="middle" x="835" y="-275.3" font-family="Times New Roman,serif" font-size="14.00">inContextOf</text>
</g>
<!-- n30 -->
<g id="node30" class="node"><title>n30</title>
<polygon fill="none" stroke="black" points="54,-36 0,-36 0,-0 54,-0 54,-36"/>
<text text-anchor="middle" x="27" y="-14.3" font-family="Times New Roman,serif" font-size="14.00">E3</text>
</g>
<!-- n29&#45;&gt;n30 -->
<g id="edge44" class="edge"><title>n29&#45;&gt;n30</title>
<path fill="none" stroke="black" d="M27,-86.799C27,-75.1626 27,-59.5479 27,-46.2368"/>
<polygon fill="black" stroke="black" points="30.5001,-46.1754 27,-36.1754 23.5001,-46.1755 30.5001,-46.1754"/>
<text text-anchor="middle" x="63.5" y="-57.8" font-family="Times New Roman,serif" font-size="14.00">supportedBy</text>
</g>
</g>
</svg>
